<?xml version="1.0" standalone="no"?>
<!DOCTYPE svg PUBLIC "-//W3C//DTD SVG 20010904//EN"
 "http://www.w3.org/TR/2001/REC-SVG-20010904/DTD/svg10.dtd">
<svg version="1.0" xmlns="http://www.w3.org/2000/svg"
 width="128.000000pt" height="128.000000pt" viewBox="0 0 128.000000 128.000000"
 preserveAspectRatio="xMidYMid meet">
<metadata>
Created by potrace 1.11, written by Peter Selinger 2001-2013
</metadata>
<g transform="translate(0.000000,128.000000) scale(0.100000,-0.100000)"
fill="#000000" stroke="none">
<path d="M0 640 l0 -640 640 0 640 0 0 640 0 640 -640 0 -640 0 0 -640z m505
224 c64 -30 87 -122 50 -195 -10 -18 -63 -77 -119 -131 l-101 -98 133 0 132 0
0 -30 0 -30 -180 0 -180 0 0 23 c0 15 39 61 125 147 134 134 156 170 136 223
-12 31 -62 57 -109 57 -16 0 -51 -11 -77 -25 -45 -22 -51 -23 -72 -10 -13 9
-23 17 -23 20 0 2 14 14 32 26 68 49 178 59 253 23z m430 7 c52 -23 101 -80
116 -133 20 -74 14 -181 -14 -242 -35 -76 -82 -109 -162 -114 -143 -9 -225 98
-213 281 7 111 53 183 135 212 52 19 91 18 138 -4z"/>
<path d="M800 808 c-52 -35 -70 -79 -70 -170 0 -136 43 -198 135 -198 40 0 52
5 80 33 51 51 68 151 40 243 -29 98 -114 140 -185 92z"/>
</g>
</svg>
