<svg width="28" height="32" viewBox="0 0 28 32" fill="none" xmlns="http://www.w3.org/2000/svg">
<path d="M26.1662 4.6274C22.8024 7.21747 19.6979 10.1278 16.8962 13.3174C16.9086 8.92623 17.3846 4.54864 18.3162 0.257395C18.4262 -0.202605 16.9862 0.00739542 16.8762 0.467395C15.8874 5.06764 15.4045 9.7622 15.4362 14.4674C14.8162 14.2974 14.1862 14.1374 13.5462 14.0074C12.0064 12.1196 10.5837 10.1392 9.28616 8.0774C9.01616 7.6474 7.64616 8.1774 7.82616 8.4674C8.9537 10.2536 10.1789 11.9762 11.4962 13.6274C8.00687 13.1872 4.47629 13.1838 0.98616 13.6174C0.61616 13.6174 -0.59384 14.3074 0.35616 14.1974C4.29844 13.6877 8.29592 13.7923 12.2062 14.5074C12.7728 15.2141 13.3495 15.9141 13.9362 16.6074C11.037 20.006 7.91331 23.2065 4.58616 26.1874C3.92616 26.7474 5.37616 26.8274 5.76616 26.4874C8.91404 23.6886 11.8707 20.6819 14.6162 17.4874L15.4462 18.4874C15.5162 22.7074 15.7162 26.9274 15.7362 31.1074C15.7362 31.4774 17.1962 31.2274 17.1962 30.7174C17.1962 27.2474 17.0362 23.7174 16.9462 20.2574C18.0962 21.6174 19.2262 22.9874 20.3062 24.4074C20.5662 24.7474 21.9662 24.2574 21.6662 23.8674C20.1462 21.8674 18.5262 19.9774 16.9062 18.0674C16.9062 17.3574 16.9062 16.6374 16.9062 15.9274C19.3477 16.874 21.6332 18.1819 23.6862 19.8074C23.9962 20.0574 25.2762 19.4874 25.0562 19.3074C22.619 17.3581 19.8565 15.855 16.8962 14.8674C19.9533 11.2831 23.3676 8.01964 27.0862 5.1274C27.8862 4.5474 26.6562 4.2674 26.1662 4.6274ZM14.4262 15.0074L15.1362 15.2174L14.8562 15.5274L14.4262 15.0074Z" fill="white"/>
</svg>
