<?xml version="1.0" standalone="no"?>
<!DOCTYPE svg PUBLIC "-//W3C//DTD SVG 20010904//EN"
 "http://www.w3.org/TR/2001/REC-SVG-20010904/DTD/svg10.dtd">
<svg version="1.0" xmlns="http://www.w3.org/2000/svg"
 width="2304.000000pt" height="2304.000000pt" viewBox="0 0 2304.000000 2304.000000"
 preserveAspectRatio="xMidYMid meet">
<metadata>
Created by potrace 1.11, written by Peter Selinger 2001-2013
</metadata>
<g transform="translate(0.000000,2304.000000) scale(0.100000,-0.100000)"
fill="#000000" stroke="none">
<path d="M1813 14668 c-5 -7 -25 -40 -43 -73 -19 -33 -38 -63 -43 -66 -5 -3
-9 -10 -9 -15 0 -5 -10 -27 -23 -49 -13 -22 -80 -138 -149 -259 -70 -120 -141
-244 -158 -275 -17 -31 -37 -65 -44 -76 -7 -11 -25 -43 -41 -71 -15 -28 -84
-148 -153 -268 -69 -119 -133 -231 -143 -249 -11 -18 -93 -162 -185 -322 -91
-159 -172 -298 -180 -307 -8 -10 -11 -18 -7 -18 4 0 1 -8 -7 -17 -8 -10 -29
-43 -45 -73 -16 -30 -42 -74 -56 -97 -15 -24 -27 -45 -27 -47 0 -3 -14 -29
-32 -58 -29 -49 -113 -196 -160 -278 -31 -54 -82 -143 -93 -162 -46 -77 -65
-112 -65 -119 0 -5 -4 -9 -10 -9 -5 0 -10 -5 -10 -10 0 -6 -29 -62 -65 -124
l-66 -113 63 -109 c34 -60 67 -112 73 -116 5 -4 6 -8 2 -8 -5 0 0 -12 11 -27
10 -16 61 -102 112 -193 51 -91 100 -173 108 -182 8 -10 12 -18 8 -18 -4 0 6
-19 22 -42 16 -24 31 -47 33 -53 4 -11 71 -128 120 -210 16 -27 33 -57 36 -65
4 -8 12 -20 17 -25 7 -7 218 -10 613 -10 l602 0 22 40 c47 84 90 161 99 175 9
15 53 91 93 160 11 19 39 69 62 110 23 41 53 93 65 115 13 22 31 54 41 70 10
17 34 62 55 100 20 39 40 72 44 75 4 3 9 10 11 15 10 26 101 185 108 190 5 2
17 -12 27 -33 10 -20 24 -44 30 -52 6 -8 25 -40 41 -70 41 -76 57 -104 63
-110 3 -3 16 -27 30 -55 14 -27 28 -51 33 -53 4 -2 7 -8 7 -14 0 -5 14 -29 30
-54 17 -24 28 -44 24 -44 -3 0 -1 -7 6 -15 18 -22 100 -167 100 -177 0 -4 5
-8 10 -8 6 0 10 -4 10 -9 0 -8 151 -276 189 -336 13 -20 23 -20 617 -20 l603
0 67 115 c36 63 76 133 89 155 12 22 32 56 43 75 12 19 28 49 37 65 8 17 19
37 25 45 5 8 60 103 120 210 61 107 115 202 120 210 5 8 30 52 56 98 26 45 52
82 57 82 6 0 7 -3 4 -7 -4 -3 -3 -11 2 -17 17 -20 271 -468 271 -477 0 -5 5
-9 10 -9 6 0 10 -5 10 -11 0 -6 15 -37 34 -68 18 -31 45 -76 58 -101 14 -25
48 -85 77 -133 28 -49 51 -92 51 -97 0 -5 3 -10 8 -12 4 -1 20 -28 36 -58 16
-30 33 -57 37 -60 9 -7 1206 -6 1212 0 3 3 19 32 38 65 18 33 35 62 38 65 4 3
16 23 28 45 11 22 29 54 40 72 10 18 56 99 102 180 46 81 93 164 105 183 32
53 39 65 70 122 16 29 37 65 47 80 11 14 19 28 19 31 0 3 20 40 45 81 25 42
45 79 45 82 0 3 7 12 15 20 17 17 13 29 -36 114 -20 36 -37 69 -37 74 0 5 -4
12 -9 15 -8 6 -113 185 -176 301 -17 30 -34 57 -39 58 -4 2 -8 7 -8 12 0 4
-16 37 -36 72 -67 116 -76 132 -154 268 -105 182 -115 200 -136 240 -11 19
-22 37 -25 40 -3 3 -12 19 -21 35 -8 17 -62 111 -120 210 -57 99 -107 187
-111 195 -4 8 -15 29 -26 45 -10 17 -62 107 -115 200 -54 94 -110 190 -124
215 -14 25 -35 61 -46 81 -29 51 -78 137 -104 182 -23 40 -51 87 -81 140 -56
99 -163 284 -171 297 -6 8 -13 22 -17 30 -4 8 -26 48 -50 88 -24 40 -43 77
-43 82 0 6 -3 10 -7 10 -5 0 -13 10 -19 23 -19 39 -77 142 -87 155 -7 9 -142
12 -613 12 l-604 0 -14 -22 c-7 -13 -27 -46 -42 -74 -36 -64 -272 -474 -284
-494 -9 -14 -40 -68 -93 -160 -11 -19 -31 -55 -45 -80 -14 -25 -35 -61 -46
-80 -12 -19 -27 -46 -35 -60 -36 -71 -51 -94 -51 -77 0 9 -4 17 -8 17 -4 0
-13 12 -20 28 -6 15 -20 41 -30 57 -11 17 -29 47 -41 68 -35 62 -62 109 -98
172 -19 33 -42 74 -52 90 -10 17 -29 50 -43 75 -25 45 -91 159 -127 222 -39
69 -142 248 -159 280 l-19 33 -605 3 c-477 2 -607 -1 -615 -10z"/>
<path d="M9047 14612 c-20 -37 -49 -87 -64 -112 -14 -25 -40 -70 -56 -100 -17
-30 -34 -58 -40 -61 -5 -3 -9 -10 -8 -15 0 -5 -10 -25 -21 -44 -12 -19 -33
-55 -46 -80 -14 -25 -29 -46 -33 -48 -5 -2 -9 -9 -9 -15 0 -7 -15 -37 -33 -67
-18 -30 -47 -80 -64 -110 -16 -30 -51 -90 -76 -132 -25 -42 -48 -86 -52 -97
-3 -12 -10 -21 -14 -21 -4 0 -13 -16 -21 -35 -8 -19 -17 -35 -22 -35 -4 0 -8
-4 -8 -9 0 -8 -151 -278 -180 -321 -6 -8 -13 -22 -17 -30 -4 -8 -24 -43 -45
-78 -21 -34 -38 -64 -38 -66 0 -1 -39 -70 -87 -152 -47 -82 -120 -209 -162
-282 -42 -73 -80 -140 -86 -150 -70 -120 -154 -268 -178 -312 -16 -30 -36 -62
-43 -71 -8 -8 -14 -18 -14 -21 0 -4 -23 -46 -51 -95 -29 -48 -63 -108 -77
-133 -14 -25 -42 -74 -64 -109 -21 -34 -38 -65 -38 -68 0 -3 -20 -39 -45 -80
-25 -40 -45 -76 -45 -79 0 -3 -9 -19 -21 -35 l-20 -29 44 -83 c24 -45 74 -133
111 -195 36 -62 66 -115 66 -117 0 -2 20 -38 45 -78 25 -41 45 -78 45 -82 0
-5 6 -16 14 -24 7 -9 27 -41 44 -72 16 -31 57 -104 91 -162 34 -58 61 -111 61
-116 0 -6 4 -11 9 -11 5 0 11 -8 15 -17 7 -23 42 -83 56 -97 15 -15 1197 -16
1216 -1 13 10 43 58 66 105 7 14 15 27 18 30 3 3 16 25 29 50 33 62 90 162
101 180 14 21 134 231 143 250 4 8 13 24 20 35 7 11 34 58 60 105 26 47 58
103 72 125 13 22 39 68 57 102 35 69 39 69 76 3 86 -154 243 -424 253 -436 6
-8 8 -14 5 -14 -4 0 0 -7 8 -16 9 -8 16 -22 16 -30 0 -8 5 -14 10 -14 6 0 10
-4 10 -9 0 -5 23 -48 50 -96 28 -48 50 -91 50 -96 0 -5 5 -9 10 -9 6 0 10 -4
10 -9 0 -6 29 -60 65 -122 36 -61 65 -115 65 -120 0 -5 8 -12 18 -17 18 -9
1207 -11 1214 -2 3 3 40 67 83 143 43 76 82 140 87 143 4 3 6 10 3 15 -4 5 -1
9 4 9 6 0 11 5 11 11 0 6 19 43 43 82 24 40 47 79 50 87 4 8 18 33 32 55 14
22 30 49 35 60 6 11 14 27 20 35 16 25 100 171 138 240 19 36 38 67 41 70 3 3
16 23 28 45 12 22 26 41 30 42 5 2 16 -11 24 -29 9 -18 44 -82 79 -143 35 -60
71 -123 80 -140 10 -16 47 -81 84 -144 36 -62 66 -115 66 -116 0 -2 27 -48 59
-103 32 -55 72 -124 89 -154 41 -75 115 -202 119 -208 3 -3 277 -5 609 -5
l605 0 32 55 c17 30 37 66 45 80 7 14 18 34 25 45 7 11 50 86 97 168 47 81 90
155 95 165 6 9 30 53 54 97 25 44 47 82 50 85 3 3 14 21 25 40 33 63 57 104
77 135 10 17 23 39 28 50 5 11 24 46 44 78 l35 59 16 -29 c8 -15 21 -39 28
-53 7 -14 23 -43 37 -65 14 -22 30 -49 36 -60 25 -47 142 -249 163 -283 12
-20 27 -48 32 -61 6 -13 19 -35 29 -50 10 -14 31 -48 45 -76 15 -27 31 -57 36
-65 23 -37 115 -198 145 -253 l34 -62 598 -1 c329 0 606 3 616 8 9 5 17 17 17
28 0 10 4 20 8 22 4 2 38 55 74 118 37 63 76 131 87 150 12 19 26 46 33 60 7
14 15 27 18 30 3 3 19 31 35 62 17 32 33 58 38 58 4 0 7 4 7 9 0 5 44 85 97
178 53 92 105 184 116 203 10 19 27 49 38 65 10 17 22 37 26 45 4 8 33 59 65
113 32 55 58 100 58 101 0 2 22 41 48 87 27 46 92 159 145 252 54 92 97 171
97 176 0 5 4 11 8 13 4 2 24 32 44 68 19 36 67 119 105 185 38 66 85 147 103
180 18 33 41 71 51 84 11 13 19 27 19 31 0 7 77 145 118 210 9 14 15 27 15 30
-1 3 4 12 11 20 7 8 27 40 43 70 42 77 57 104 63 110 3 3 11 16 17 30 18 36
59 108 70 122 6 7 27 45 48 83 39 72 49 89 80 139 l18 29 17 -34 c9 -19 47
-86 85 -149 37 -63 72 -124 77 -135 5 -11 19 -36 31 -57 32 -53 89 -150 101
-173 61 -111 172 -301 178 -303 5 -2 8 -7 8 -12 0 -7 75 -139 361 -638 11 -18
38 -66 61 -105 22 -40 46 -82 52 -94 6 -13 14 -23 19 -23 4 0 7 -4 7 -10 0 -9
90 -173 107 -195 4 -6 18 -28 30 -50 11 -22 31 -56 42 -75 12 -19 28 -48 36
-65 8 -16 25 -47 37 -67 74 -122 208 -360 208 -368 0 -6 5 -10 10 -10 6 0 10
-4 10 -9 0 -5 27 -55 60 -111 33 -56 60 -103 60 -105 0 -2 18 -33 40 -69 22
-36 40 -70 40 -75 0 -5 3 -11 8 -13 4 -2 18 -25 32 -53 14 -27 28 -52 31 -55
3 -3 19 -30 37 -60 l31 -55 601 0 601 0 21 22 c12 13 18 23 14 23 -4 0 1 12
12 28 10 15 30 47 44 72 41 73 157 274 168 290 6 8 13 22 17 30 4 8 44 80 90
159 46 79 83 147 83 152 0 5 3 9 8 9 4 0 16 19 27 43 11 23 22 44 26 47 3 3
23 37 44 75 20 39 41 75 45 80 4 6 19 30 32 55 62 111 203 355 208 360 3 3 13
21 24 40 49 93 90 165 96 170 3 3 19 30 34 60 16 30 33 62 40 70 6 8 16 24 22
35 46 85 83 149 137 240 10 16 23 42 30 58 6 15 15 27 19 27 4 0 8 6 8 14 0 7
8 24 18 37 10 13 35 53 54 89 34 64 89 160 108 190 5 8 19 34 31 58 13 23 26
42 31 42 4 0 8 6 8 13 0 6 23 50 50 96 28 46 50 86 50 87 0 2 13 25 28 51 105
175 192 332 192 345 0 12 -119 228 -170 308 -5 8 -21 38 -36 65 -14 28 -32 57
-39 65 -8 8 -18 26 -24 40 -6 14 -22 43 -36 65 -13 22 -31 54 -40 70 -9 17
-21 39 -28 50 -53 88 -147 256 -147 265 0 5 -4 10 -9 10 -5 0 -13 10 -17 22
-4 13 -18 40 -32 60 l-25 38 -602 0 c-470 0 -605 -3 -612 -12 -10 -12 -49 -82
-89 -158 -11 -19 -21 -37 -24 -40 -11 -11 -31 -46 -41 -72 -6 -16 -15 -28 -20
-28 -5 0 -9 -4 -9 -9 0 -5 -25 -52 -55 -105 -30 -53 -79 -138 -108 -189 -29
-51 -57 -100 -61 -108 -4 -8 -12 -23 -19 -34 -7 -11 -28 -47 -47 -80 -19 -33
-40 -69 -47 -80 -7 -11 -17 -31 -23 -45 -6 -13 -14 -27 -18 -30 -4 -3 -13 -17
-19 -32 -15 -34 -29 -36 -39 -5 -4 12 -9 24 -13 27 -6 5 -12 14 -59 99 -14 25
-75 132 -135 236 -60 105 -110 196 -110 203 0 6 -4 12 -9 12 -5 0 -12 8 -15
18 -4 9 -26 50 -50 90 -24 41 -43 78 -43 83 0 5 -4 9 -8 9 -4 0 -13 12 -20 28
-6 15 -27 54 -46 87 -20 33 -44 77 -56 98 l-20 37 -609 0 -609 0 -11 -27 c-6
-16 -24 -49 -40 -75 -16 -25 -40 -66 -54 -90 -13 -23 -50 -88 -82 -143 -31
-55 -68 -118 -80 -140 -13 -22 -39 -67 -58 -100 -20 -33 -44 -76 -53 -95 -10
-19 -24 -41 -31 -48 -7 -7 -13 -19 -13 -27 0 -7 -3 -15 -7 -17 -5 -1 -21 -29
-38 -60 -16 -32 -34 -58 -39 -58 -5 0 -6 -3 -3 -6 4 -4 -2 -19 -12 -33 -10
-14 -31 -50 -46 -78 -16 -29 -31 -53 -34 -53 -6 0 -28 37 -101 169 -14 26 -33
57 -41 71 -13 20 -145 253 -259 455 -13 22 -31 54 -41 70 -11 17 -22 37 -26
45 -4 8 -29 53 -57 100 -28 47 -56 97 -63 113 l-12 27 -606 0 c-472 0 -609 -3
-618 -12 -7 -7 -20 -29 -30 -48 -9 -19 -26 -49 -36 -66 -10 -17 -75 -130 -144
-251 -69 -121 -136 -237 -148 -259 -12 -21 -36 -64 -53 -94 -16 -30 -33 -56
-38 -58 -4 -2 -8 -7 -8 -12 0 -4 -16 -37 -36 -72 -20 -34 -50 -88 -66 -118
-17 -30 -32 -57 -34 -59 -6 -7 -31 29 -65 94 -17 33 -39 71 -49 85 -10 14 -34
57 -55 95 -21 39 -46 82 -54 97 -39 65 -86 147 -109 188 -14 25 -56 98 -94
163 -37 65 -68 122 -68 127 0 6 -4 10 -8 10 -4 0 -13 12 -19 28 -7 15 -26 50
-43 77 -17 28 -33 58 -37 68 -5 16 -43 17 -613 17 l-608 0 -29 -47 c-15 -27
-31 -55 -36 -63 -4 -8 -16 -28 -27 -45 -11 -16 -23 -37 -27 -45 -3 -8 -49 -89
-102 -180 -52 -91 -103 -181 -113 -200 -11 -19 -35 -62 -55 -95 -19 -33 -47
-80 -61 -105 -45 -80 -59 -104 -111 -193 -28 -49 -51 -93 -51 -98 0 -5 -4 -9
-9 -9 -5 0 -11 -8 -14 -17 -3 -10 -19 -40 -35 -68 -71 -121 -102 -178 -102
-186 0 -5 -4 -9 -10 -9 -5 0 -10 -4 -10 -9 0 -8 -49 -94 -123 -219 -15 -26
-32 -56 -37 -67 -6 -11 -24 -42 -40 -70 -16 -27 -41 -70 -55 -95 -14 -25 -30
-52 -35 -60 -5 -8 -44 -76 -86 -150 -42 -74 -126 -220 -187 -325 -60 -104
-119 -208 -131 -230 -13 -22 -32 -56 -43 -75 -154 -267 -213 -373 -213 -381 0
-5 -4 -9 -10 -9 -5 0 -12 -11 -16 -25 -3 -14 -9 -25 -13 -25 -3 0 -12 -14 -20
-31 l-14 -32 -18 24 c-11 13 -22 34 -25 47 -3 12 -10 22 -14 22 -4 0 -10 8
-13 18 -4 9 -18 37 -33 62 -97 164 -124 211 -124 214 0 4 -110 194 -130 226
-5 8 -21 35 -34 60 -13 25 -45 80 -70 123 -25 43 -46 82 -46 87 0 6 -4 10 -10
10 -5 0 -10 4 -10 9 0 4 -84 154 -186 332 -176 307 -199 347 -254 444 -12 22
-26 45 -30 50 -9 11 -67 116 -84 152 -6 13 -14 23 -18 23 -5 0 -8 4 -8 9 0 12
-93 175 -102 179 -4 2 -8 8 -8 13 0 8 -74 140 -182 324 -16 28 -34 62 -41 78
-6 15 -15 27 -19 27 -4 0 -8 4 -8 9 0 4 -47 90 -105 191 -58 100 -105 186
-105 191 0 5 -4 9 -10 9 -5 0 -10 4 -10 8 0 8 -22 49 -90 167 l-28 50 -609 2
-608 3 -38 -68z"/>
<path d="M6186 9453 c-1 -1 -20 -5 -42 -9 -178 -28 -313 -150 -375 -337 -46
-142 -36 -319 27 -456 56 -123 180 -230 299 -257 49 -12 131 -21 159 -18 110
12 136 19 215 58 48 23 171 140 171 162 0 8 4 14 10 14 5 0 9 3 8 8 -1 4 8 27
19 52 50 112 62 278 29 405 -24 93 -88 205 -143 248 -13 10 -29 25 -37 32 -36
37 -138 81 -209 90 -51 7 -127 12 -131 8z m169 -172 c93 -41 137 -106 184
-271 7 -27 6 -159 -2 -201 -22 -111 -84 -207 -165 -252 -47 -26 -64 -30 -135
-31 -87 0 -142 18 -198 67 -44 38 -87 117 -106 197 -3 13 -12 92 -15 125 -1
16 12 118 18 140 15 57 54 130 86 162 44 46 54 51 114 72 68 22 157 19 219 -8z"/>
<path d="M8479 9456 c-2 -2 -24 -6 -49 -9 -66 -8 -138 -35 -197 -74 -45 -29
-68 -52 -136 -133 -21 -25 -59 -120 -74 -185 -17 -72 -18 -203 -3 -270 7 -28
13 -57 15 -65 13 -59 110 -208 151 -233 7 -4 20 -14 28 -22 8 -8 19 -15 24
-15 5 0 15 -7 22 -15 6 -8 15 -14 18 -13 4 1 23 -5 43 -14 48 -21 119 -32 194
-30 53 2 95 7 103 12 1 2 7 4 12 5 6 1 11 3 13 5 1 1 9 3 19 5 19 3 74 41 103
70 39 38 52 46 53 32 1 -15 11 -67 18 -88 4 -16 64 -33 64 -19 0 4 13 5 28 2
l28 -4 -1 271 c0 173 -4 271 -10 272 -51 4 -416 0 -423 -5 -11 -6 -9 -112 2
-123 4 -4 65 -8 134 -8 l127 -1 -2 -34 c-2 -63 -33 -150 -53 -150 -5 0 -12 -9
-15 -20 -3 -11 -11 -20 -17 -20 -6 0 -19 -7 -29 -16 -48 -44 -216 -52 -295
-14 -120 59 -188 200 -183 379 5 173 71 297 188 352 72 34 182 31 257 -7 64
-32 104 -76 120 -131 l11 -38 91 -3 90 -3 -12 48 c-20 75 -58 143 -100 181
-10 9 -24 22 -31 29 -46 44 -173 88 -264 92 -25 1 -48 4 -51 6 -4 3 -9 3 -11
1z"/>
<path d="M1022 9102 c60 -180 111 -331 112 -337 3 -11 13 -38 26 -70 4 -11 20
-58 34 -105 15 -47 30 -92 33 -100 3 -8 8 -23 10 -33 8 -42 23 -56 57 -55 18
1 38 -2 44 -6 6 -3 13 -2 17 3 3 6 15 7 28 2 12 -4 34 -5 50 -2 25 5 31 16 63
111 19 58 38 112 41 120 4 8 7 17 8 20 1 3 4 12 7 20 4 8 8 24 11 35 3 11 23
70 44 130 22 61 40 112 41 115 1 8 12 39 19 58 3 9 7 22 9 27 1 6 26 78 54
160 58 170 59 172 61 183 1 4 5 17 10 30 9 22 8 22 -83 20 l-91 -3 -70 -215
c-38 -118 -73 -224 -77 -235 -5 -11 -33 -95 -62 -187 -29 -92 -56 -164 -59
-160 -4 4 -28 75 -54 157 -73 233 -176 558 -182 575 -3 8 -8 24 -10 35 -5 29
-19 33 -113 34 l-87 1 109 -328z"/>
<path d="M2298 9423 c-2 -4 -4 -235 -4 -512 1 -573 -10 -511 91 -512 101 0 90
-62 90 517 l0 509 -87 3 c-47 2 -88 0 -90 -5z"/>
<path d="M3077 9422 c-6 -14 -1 -1012 6 -1018 6 -6 59 -9 82 -4 27 5 62 4 82
-2 12 -4 25 -3 28 2 3 5 16 6 28 1 12 -4 36 -4 52 -1 17 3 40 3 52 -1 12 -5
25 -4 28 1 3 6 15 6 29 0 13 -5 26 -7 28 -5 2 2 28 6 59 8 121 10 204 48 280
128 38 40 78 102 84 129 1 3 7 25 15 50 20 67 20 69 26 150 7 95 7 86 -1 145
-28 224 -148 370 -337 410 -61 13 -535 19 -541 7z m419 -145 c89 -8 160 -39
207 -92 23 -24 60 -95 51 -95 -4 0 -1 -7 6 -15 14 -17 20 -223 8 -290 -21
-125 -106 -207 -238 -232 -17 -3 -200 -6 -245 -4 l-30 1 1 361 c1 234 5 364
12 368 11 6 141 5 228 -2z"/>
<path d="M4501 8919 c1 -486 1 -510 19 -519 13 -7 21 -7 25 0 4 6 11 8 16 4 9
-5 100 -8 124 -4 28 5 62 4 82 -2 12 -4 25 -3 28 3 4 5 11 6 17 3 11 -7 106
-9 113 -2 3 2 27 2 55 -2 27 -4 50 -3 50 1 0 5 6 6 14 3 26 -10 206 -9 209 1
2 8 1 129 -2 145 -1 3 -129 6 -284 5 l-284 0 1 150 1 150 258 0 c164 0 257 4
258 10 7 86 3 134 -11 137 -8 2 -126 3 -261 2 l-246 -1 1 135 1 135 280 1 280
1 0 75 0 75 -372 2 -372 1 0 -509z"/>
<path d="M9813 9421 c-9 -6 -17 -24 -88 -211 -20 -52 -40 -104 -45 -115 -5
-11 -31 -81 -59 -155 -28 -74 -56 -143 -61 -152 -6 -10 -10 -23 -10 -29 0 -6
-6 -25 -14 -42 -26 -60 -100 -252 -98 -255 1 -1 -4 -16 -13 -32 l-15 -29 33 1
c19 1 39 -2 45 -6 6 -3 13 -2 16 3 4 5 18 6 34 2 50 -15 62 -1 98 105 18 54
38 107 44 116 5 10 10 25 10 33 0 17 -13 16 225 16 91 0 171 0 179 -1 7 0 19
-15 26 -32 6 -18 16 -41 21 -50 5 -10 9 -25 9 -33 0 -8 4 -23 9 -33 12 -22 23
-52 28 -76 2 -11 8 -25 14 -32 10 -12 89 -24 89 -14 0 5 47 5 76 -1 30 -5 30
8 -8 104 -22 56 -52 136 -68 177 -15 41 -55 145 -88 230 -33 85 -90 234 -127
330 -38 96 -73 178 -79 182 -13 9 -169 9 -183 -1z m110 -221 c9 -25 39 -110
67 -190 29 -80 53 -150 54 -157 1 -7 5 -16 9 -19 20 -20 -6 -24 -154 -24 -128
0 -159 3 -152 13 6 6 13 21 16 32 7 26 86 251 99 284 6 14 12 32 14 40 4 19
26 72 29 69 2 -2 10 -23 18 -48z"/>
<path d="M10878 9421 c0 -3 -1 -232 -2 -509 -1 -493 -1 -502 19 -509 18 -5 94
-7 113 -3 4 1 14 2 23 1 14 -1 15 41 15 393 -1 349 3 430 19 360 3 -15 44
-130 72 -204 3 -8 7 -19 9 -25 1 -5 14 -41 29 -80 33 -88 66 -181 115 -320 38
-107 62 -143 84 -126 6 5 19 6 29 2 35 -13 85 -1 90 22 3 12 24 72 47 132 23
61 48 130 57 155 8 25 20 56 26 70 5 14 11 30 13 37 4 19 108 302 127 346 10
22 12 -50 11 -367 0 -317 2 -396 13 -400 7 -3 13 -2 13 2 0 5 25 5 55 2 30 -3
55 -3 55 1 0 4 8 5 18 2 17 -4 18 21 17 509 l0 513 -125 0 -124 0 -19 -50 c-9
-27 -20 -57 -24 -65 -3 -8 -7 -17 -8 -20 -4 -18 -28 -88 -35 -105 -4 -11 -20
-56 -35 -100 -14 -44 -29 -87 -32 -95 -4 -8 -7 -18 -8 -22 -2 -5 -4 -10 -5
-13 -1 -3 -3 -8 -4 -12 -4 -16 -38 -119 -46 -138 -4 -11 -21 -55 -36 -98 -23
-66 -36 -86 -40 -59 0 4 -6 20 -13 36 -6 16 -13 36 -15 45 -2 9 -6 23 -9 31
-12 28 -128 355 -134 375 -2 11 -8 29 -13 40 -5 11 -23 61 -40 110 -17 50 -36
102 -42 117 l-10 26 -124 0 c-68 0 -125 -3 -126 -7z"/>
<path d="M12545 8917 l0 -512 31 -1 c17 -1 36 -4 42 -8 6 -3 13 -2 17 4 4 6
11 7 17 4 12 -8 106 -9 114 -2 3 3 21 2 40 -2 19 -4 36 -5 38 -1 5 8 82 5 95
-4 5 -3 12 -1 16 5 4 6 11 7 17 4 11 -7 106 -9 113 -2 3 2 27 2 55 -2 27 -4
50 -3 50 2 0 4 10 4 23 0 12 -5 36 -6 52 -3 l30 6 0 75 0 75 -280 0 c-154 0
-282 3 -285 7 -3 4 -5 71 -5 150 l0 143 245 1 c135 1 252 2 260 3 12 1 15 16
15 71 0 40 -4 70 -10 71 -5 1 -122 2 -260 3 l-250 1 0 133 c-1 112 2 132 15
133 8 0 134 1 280 2 l265 2 0 75 0 75 -370 2 -371 1 1 -511z"/>
<path d="M14618 9417 c-3 -7 -4 -237 -4 -512 l1 -500 38 -2 c21 0 41 -4 44 -7
4 -3 12 -1 20 5 7 6 13 7 13 2 0 -5 13 -8 28 -5 l29 4 0 361 c1 199 2 378 2
397 1 29 7 20 35 -60 34 -97 41 -117 53 -147 3 -10 7 -20 8 -23 1 -3 4 -12 7
-20 37 -96 98 -275 98 -285 0 -7 3 -15 8 -17 4 -1 23 -49 42 -106 l35 -103 47
2 c26 2 50 0 53 -3 3 -3 16 -3 28 -1 18 4 28 20 51 86 16 45 34 96 41 112 7
17 34 91 60 165 25 74 50 144 55 155 5 11 16 43 25 70 10 28 23 64 30 80 7 17
18 48 25 70 7 22 15 43 19 47 3 4 6 -171 5 -388 l0 -395 25 3 c14 1 31 -1 38
-5 6 -4 14 -3 18 2 3 6 15 7 28 2 12 -5 31 -5 42 -1 21 8 21 13 20 516 l0 509
-125 2 -125 2 -73 -212 c-208 -599 -204 -588 -210 -583 -2 3 -17 42 -33 88
-16 46 -32 90 -36 98 -3 8 -7 20 -8 26 -2 7 -16 50 -33 95 -17 46 -47 131 -67
189 -21 58 -53 148 -72 202 l-35 96 -123 1 c-88 0 -124 -3 -127 -12z"/>
<path d="M16549 9403 c-5 -13 -9 -26 -9 -27 0 -2 -8 -21 -17 -42 -9 -22 -17
-41 -18 -44 -2 -9 -45 -124 -55 -145 -31 -68 -280 -731 -277 -738 2 -8 88 -13
115 -7 4 1 19 1 33 0 21 -1 29 6 40 32 7 18 15 38 16 43 2 13 65 189 69 193 5
8 407 2 414 -5 4 -4 27 -65 51 -135 36 -107 47 -127 66 -131 12 -2 25 -2 28 1
7 7 68 7 86 0 8 -3 25 -1 38 3 17 7 21 13 13 22 -6 6 -11 17 -12 22 -3 13 -6
20 -106 280 -103 263 -126 325 -166 430 -16 44 -36 92 -44 107 -8 15 -15 31
-16 35 0 5 -4 18 -9 31 -5 13 -9 26 -9 29 0 3 -7 20 -16 38 l-16 34 -95 -1
c-91 0 -95 -1 -104 -25z m120 -185 c9 -32 122 -355 136 -390 7 -17 -4 -18
-149 -18 -86 0 -156 3 -156 8 0 4 16 50 36 102 19 52 36 102 38 110 2 8 14 40
26 70 12 30 21 56 20 58 -2 4 32 92 36 92 2 0 7 -15 13 -32z"/>
<path d="M17629 9358 c-2 -388 1 -931 6 -947 5 -17 10 -18 30 -11 13 5 27 5
30 1 3 -5 20 -6 38 -1 18 4 43 3 55 -1 l22 -8 0 177 0 178 73 72 73 72 31 -43
c17 -25 75 -109 129 -188 54 -79 102 -145 106 -147 4 -2 8 -9 8 -16 0 -7 9
-21 20 -31 11 -10 20 -24 20 -31 0 -7 5 -16 11 -20 19 -12 79 -22 84 -15 2 4
26 5 52 2 26 -4 61 -4 77 -1 26 4 27 6 13 19 -10 7 -17 20 -17 27 0 8 -4 14
-8 14 -4 0 -19 18 -32 40 -14 22 -28 40 -32 40 -5 0 -8 5 -8 11 0 6 -6 16 -12
23 -7 8 -20 24 -28 36 -8 12 -21 28 -27 36 -7 7 -13 15 -13 18 0 3 -34 52 -74
108 -41 57 -85 118 -98 136 -13 18 -33 46 -45 62 -13 15 -23 35 -23 43 0 16
347 367 362 367 5 0 7 4 4 9 -3 5 1 11 9 15 8 3 15 10 15 15 0 6 -41 10 -105
10 l-104 0 -58 -58 c-32 -32 -134 -136 -227 -230 -93 -94 -171 -170 -173 -167
-2 2 -4 105 -3 228 l1 224 -91 2 -90 2 -1 -72z"/>
<path d="M18999 9422 c-4 -36 -1 -191 4 -200 4 -6 4 -13 -1 -16 -9 -5 -9 -47
0 -62 3 -5 2 -18 -2 -28 -3 -11 -4 -37 0 -57 4 -21 3 -42 -1 -46 -4 -4 -4 -25
0 -45 5 -20 6 -39 3 -42 -7 -8 -5 -273 3 -285 3 -5 1 -12 -4 -15 -5 -4 -7 -19
-4 -34 3 -15 5 -31 5 -37 -2 -19 -4 -130 -3 -141 1 -7 21 -12 46 -12 25 -1 50
-4 55 -7 6 -4 10 -2 10 4 0 6 11 7 28 2 15 -4 41 -4 57 -1 17 4 40 3 52 -1 12
-5 25 -4 28 1 3 5 16 6 28 1 12 -4 36 -4 52 -1 17 3 40 3 52 -1 12 -5 25 -4
28 1 3 5 16 6 28 1 12 -4 36 -4 52 -1 17 3 40 3 52 -1 12 -5 25 -4 28 1 3 5
12 7 20 4 8 -3 41 -7 75 -7 54 -2 60 0 61 18 0 11 1 46 2 78 2 44 -1 57 -13
58 -8 1 -136 2 -285 3 l-270 1 -3 150 -2 151 257 0 257 0 5 24 c4 14 4 48 1
75 l-5 50 -255 0 -255 0 -3 133 -3 132 33 1 c18 0 144 1 281 1 278 1 249 -9
249 83 0 25 -1 51 -1 59 -1 12 -59 14 -371 14 -203 0 -370 -3 -371 -6z"/>
<path d="M20296 9423 c-3 -4 -6 -235 -6 -514 l0 -507 23 -4 c13 -3 33 -1 45 3
12 5 23 5 26 1 2 -4 23 -6 45 -4 l41 4 2 211 3 212 156 -1 c89 -1 171 -6 192
-13 87 -29 112 -85 122 -276 1 -27 3 -61 4 -75 3 -44 25 -62 78 -62 26 0 53 1
58 2 6 1 25 1 43 0 l33 -2 -16 33 c-21 39 -25 69 -40 252 -3 37 -11 82 -19
100 -17 40 -62 86 -93 93 -30 8 -29 22 2 34 61 23 133 138 123 195 -3 14 -2
25 2 25 12 0 2 72 -16 125 -28 85 -94 138 -199 160 -64 13 -597 20 -609 8z
m400 -146 c3 -3 18 -1 34 3 16 4 31 6 33 3 3 -2 20 -6 39 -7 18 -2 41 -4 50
-5 21 -1 60 -37 77 -70 17 -32 15 -124 -3 -160 -17 -33 -66 -71 -89 -71 -9 0
-19 -5 -22 -10 -4 -6 -11 -7 -17 -3 -14 8 -69 8 -90 1 -8 -4 -21 -3 -28 2 -7
4 -26 4 -41 0 -16 -5 -29 -6 -29 -2 0 8 -68 7 -76 -1 -3 -3 -19 -1 -35 5 l-29
10 0 152 c0 84 2 155 4 157 6 6 216 3 222 -4z"/>
</g>
</svg>
