<?xml version="1.0" encoding="UTF-8"?>
<svg width="576px" height="158px" viewBox="0 0 576 158" version="1.1" xmlns="http://www.w3.org/2000/svg" xmlns:xlink="http://www.w3.org/1999/xlink">
    <!-- Generator: Sketch 52 (66869) - http://www.bohemiancoding.com/sketch -->
    <title>Group</title>
    <desc>Created with Sketch.</desc>
    <defs>
        <path d="M2.83105882,1.296 L7.52941176,1.296 L13.9986824,21.636 L14.0709647,21.636 L20.6848,1.296 L25.2747294,1.296 L16.4562824,27 L11.4326588,27 L2.83105882,1.296 Z M37.3579297,1.296 L41.8755767,1.296 L41.8755767,27 L37.3579297,27 L37.3579297,1.296 Z M56.9223535,1.296 L67.6201417,1.296 C69.5958692,1.296 71.3065345,1.63199664 72.7521888,2.304 C74.197843,2.97600336 75.378443,3.89399418 76.294024,5.058 C77.2096051,6.22200582 77.8902571,7.5839922 78.3360005,9.144 C78.7817439,10.7040078 79.0046123,12.3719911 79.0046123,14.148 C79.0046123,15.9240089 78.7817439,17.5919922 78.3360005,19.152 C77.8902571,20.7120078 77.2096051,22.0739942 76.294024,23.238 C75.378443,24.4020058 74.197843,25.3199966 72.7521888,25.992 C71.3065345,26.6640034 69.5958692,27 67.6201417,27 L56.9223535,27 L56.9223535,1.296 Z M61.4400005,23.328 L65.8853652,23.328 C67.6442446,23.328 69.0838537,23.0940023 70.2042358,22.626 C71.3246179,22.1579977 72.2040444,21.5100041 72.8425417,20.682 C73.481039,19.8539959 73.9147288,18.8820056 74.143624,17.766 C74.3725193,16.6499944 74.4869652,15.4440065 74.4869652,14.148 C74.4869652,12.8519935 74.3725193,11.6460056 74.143624,10.53 C73.9147288,9.41399442 73.481039,8.44200414 72.8425417,7.614 C72.2040444,6.78599586 71.3246179,6.13800234 70.2042358,5.67 C69.0838537,5.20199766 67.6442446,4.968 65.8853652,4.968 L61.4400005,4.968 L61.4400005,23.328 Z M92.5334596,1.296 L111.110024,1.296 L111.110024,5.184 L97.0511067,5.184 L97.0511067,11.916 L110.06193,11.916 L110.06193,15.588 L97.0511067,15.588 L97.0511067,23.112 L111.363013,23.112 L111.363013,27 L92.5334596,27 L92.5334596,1.296 Z M135.806495,4.356 C134.433124,4.356 133.2465,4.63199724 132.246589,5.184 C131.246678,5.73600276 130.43351,6.47399538 129.80706,7.398 C129.18061,8.32200462 128.716803,9.37199412 128.415625,10.548 C128.114447,11.7240059 127.96386,12.9239939 127.96386,14.148 C127.96386,15.3720061 128.114447,16.5719941 128.415625,17.748 C128.716803,18.9240059 129.18061,19.9739954 129.80706,20.898 C130.43351,21.8220046 131.246678,22.5599972 132.246589,23.112 C133.2465,23.6640028 134.433124,23.94 135.806495,23.94 C137.179867,23.94 138.36649,23.6640028 139.366401,23.112 C140.366312,22.5599972 141.17948,21.8220046 141.80593,20.898 C142.432381,19.9739954 142.896188,18.9240059 143.197366,17.748 C143.498544,16.5719941 143.64913,15.3720061 143.64913,14.148 C143.64913,12.9239939 143.498544,11.7240059 143.197366,10.548 C142.896188,9.37199412 142.432381,8.32200462 141.80593,7.398 C141.17948,6.47399538 140.366312,5.73600276 139.366401,5.184 C138.36649,4.63199724 137.179867,4.356 135.806495,4.356 Z M135.806495,0.684 C137.734034,0.684 139.46277,1.0439964 140.992754,1.764 C142.522738,2.4840036 143.817784,3.45599388 144.87793,4.68 C145.938077,5.90400612 146.751245,7.33199184 147.31746,8.964 C147.883674,10.5960082 148.166778,12.3239909 148.166778,14.148 C148.166778,15.9960092 147.883674,17.7359918 147.31746,19.368 C146.751245,21.0000082 145.938077,22.4279939 144.87793,23.652 C143.817784,24.8760061 142.522738,25.8419965 140.992754,26.55 C139.46277,27.2580035 137.734034,27.612 135.806495,27.612 C133.878956,27.612 132.15022,27.2580035 130.620236,26.55 C129.090252,25.8419965 127.795206,24.8760061 126.73506,23.652 C125.674913,22.4279939 124.861745,21.0000082 124.29553,19.368 C123.729316,17.7359918 123.446213,15.9960092 123.446213,14.148 C123.446213,12.3239909 123.729316,10.5960082 124.29553,8.964 C124.861745,7.33199184 125.674913,5.90400612 126.73506,4.68 C127.795206,3.45599388 129.090252,2.4840036 130.620236,1.764 C132.15022,1.0439964 133.878956,0.684 135.806495,0.684 Z M203.884425,27 L200.993131,27 L200.306449,23.976 C199.101737,25.3440068 197.897043,26.2919974 196.692331,26.82 C195.487619,27.3480026 194.102221,27.612 192.536096,27.612 C190.608557,27.612 188.879821,27.2580035 187.349837,26.55 C185.819853,25.8419965 184.524807,24.8760061 183.46466,23.652 C182.404514,22.4279939 181.591346,21.0000082 181.025131,19.368 C180.458916,17.7359918 180.175813,15.9960092 180.175813,14.148 C180.175813,12.3239909 180.458916,10.5960082 181.025131,8.964 C181.591346,7.33199184 182.404514,5.90400612 183.46466,4.68 C184.524807,3.45599388 185.819853,2.4840036 187.349837,1.764 C188.879821,1.0439964 190.608557,0.684 192.536096,0.684 C193.933561,0.684 195.264748,0.86999814 196.529696,1.242 C197.794643,1.61400186 198.921032,2.16599634 199.908896,2.898 C200.896759,3.63000366 201.715951,4.54799448 202.366496,5.652 C203.01704,6.75600552 203.426636,8.0279928 203.595296,9.468 L199.186072,9.468 C199.065601,8.6279958 198.806592,7.89000318 198.409037,7.254 C198.011482,6.61799682 197.511534,6.08400216 196.909178,5.652 C196.306822,5.21999784 195.632194,4.89600108 194.885272,4.68 C194.138351,4.46399892 193.3553,4.356 192.536096,4.356 C191.162724,4.356 189.976101,4.63199724 188.97619,5.184 C187.976279,5.73600276 187.163111,6.47399538 186.53666,7.398 C185.91021,8.32200462 185.446403,9.37199412 185.145225,10.548 C184.844047,11.7240059 184.69346,12.9239939 184.69346,14.148 C184.69346,15.3720061 184.844047,16.5719941 185.145225,17.748 C185.446403,18.9240059 185.91021,19.9739954 186.53666,20.898 C187.163111,21.8220046 187.976279,22.5599972 188.97619,23.112 C189.976101,23.6640028 191.162724,23.94 192.536096,23.94 C193.692619,23.9640001 194.716609,23.8140016 195.608096,23.49 C196.499582,23.1659984 197.252516,22.6980031 197.866919,22.086 C198.481322,21.4739969 198.945129,20.7240044 199.258354,19.836 C199.57158,18.9479956 199.740237,17.9640054 199.764331,16.884 L192.897507,16.884 L192.897507,13.464 L203.884425,13.464 L203.884425,27 Z M225.219767,1.296 L230.026543,1.296 L239.965367,27 L235.122449,27 L232.70099,20.196 L222.400755,20.196 L219.979296,27 L215.317084,27 L225.219767,1.296 Z M223.629555,16.776 L231.508331,16.776 L227.641225,5.724 L227.532802,5.724 L223.629555,16.776 Z M251.867861,1.296 L258.228708,1.296 L265.34852,21.42 L265.420802,21.42 L272.359908,1.296 L278.648473,1.296 L278.648473,27 L274.347673,27 L274.347673,7.164 L274.27539,7.164 L267.119437,27 L263.396896,27 L256.240943,7.164 L256.168661,7.164 L256.168661,27 L251.867861,27 L251.867861,1.296 Z M293.586826,1.296 L312.163391,1.296 L312.163391,5.184 L298.104473,5.184 L298.104473,11.916 L311.115296,11.916 L311.115296,15.588 L298.104473,15.588 L298.104473,23.112 L312.416379,23.112 L312.416379,27 L293.586826,27 L293.586826,1.296 Z M345.365085,1.296 L351.725932,1.296 L358.845744,21.42 L358.918026,21.42 L365.857132,1.296 L372.145697,1.296 L372.145697,27 L367.844897,27 L367.844897,7.164 L367.772615,7.164 L360.616662,27 L356.89412,27 L349.738168,7.164 L349.665885,7.164 L349.665885,27 L345.365085,27 L345.365085,1.296 Z M393.987015,1.296 L398.793791,1.296 L408.732615,27 L403.889697,27 L401.468238,20.196 L391.168003,20.196 L388.746544,27 L384.084333,27 L393.987015,1.296 Z M392.396803,16.776 L400.27558,16.776 L396.408474,5.724 L396.30005,5.724 L392.396803,16.776 Z M420.707392,1.296 L425.225039,1.296 L425.225039,12.996 L436.717933,1.296 L442.283674,1.296 L431.983439,11.556 L443.006497,27 L437.368474,27 L428.911439,14.724 L425.225039,18.36 L425.225039,27 L420.707392,27 L420.707392,1.296 Z M454.981274,1.296 L473.557839,1.296 L473.557839,5.184 L459.498921,5.184 L459.498921,11.916 L472.509745,11.916 L472.509745,15.588 L459.498921,15.588 L459.498921,23.112 L473.810827,23.112 L473.810827,27 L454.981274,27 L454.981274,1.296 Z M487.267392,1.296 L499.591533,1.296 C502.434653,1.296 504.566961,1.90799388 505.988522,3.132 C507.410082,4.35600612 508.120851,6.05998908 508.120851,8.244 C508.120851,9.46800612 507.940147,10.481996 507.578733,11.286 C507.21732,12.090004 506.795677,12.7379975 506.313792,13.23 C505.831907,13.7220025 505.356053,14.0759989 504.886216,14.292 C504.416378,14.5080011 504.07304,14.6519996 503.856192,14.724 L503.856192,14.796 C504.2417,14.8440002 504.657319,14.963999 505.103063,15.156 C505.548806,15.348001 505.964425,15.6539979 506.349933,16.074 C506.735441,16.4940021 507.054685,17.0399966 507.307674,17.712 C507.560664,18.3840034 507.687157,19.223995 507.687157,20.232 C507.687157,21.7440076 507.801603,23.1179938 508.030498,24.354 C508.259393,25.5900062 508.614778,26.4719974 509.096663,27 L504.253745,27 C503.916426,26.4479972 503.717651,25.8360034 503.657416,25.164 C503.59718,24.4919966 503.567063,23.8440031 503.567063,23.22 C503.567063,22.0439941 503.494781,21.0300043 503.350216,20.178 C503.20565,19.3259957 502.940618,18.6180028 502.55511,18.054 C502.169602,17.4899972 501.64556,17.0760013 500.982969,16.812 C500.320377,16.5479987 499.471068,16.416 498.435016,16.416 L491.785039,16.416 L491.785039,27 L487.267392,27 L487.267392,1.296 Z M491.785039,12.996 L499.19398,12.996 C500.639635,12.996 501.735906,12.6540034 502.482827,11.97 C503.229749,11.2859966 503.603204,10.2600068 503.603204,8.892 C503.603204,8.07599592 503.482734,7.41000258 503.241792,6.894 C503.00085,6.37799742 502.669559,5.97600144 502.24791,5.688 C501.826261,5.39999856 501.344383,5.20800048 500.802263,5.112 C500.260142,5.01599952 499.69996,4.968 499.121698,4.968 L491.785039,4.968 L491.785039,12.996 Z" id="path-1"></path>
        <linearGradient x1="4.7983427%" y1="49.7500002%" x2="101.257813%" y2="49.7500002%" id="linearGradient-3">
            <stop stop-color="#2683E5" offset="0%"></stop>
            <stop stop-color="#53A0FD" offset="51.5873374%"></stop>
            <stop stop-color="#41C0E5" offset="100%"></stop>
        </linearGradient>
        <linearGradient x1="-0.0078287971%" y1="49.9950624%" x2="99.9662314%" y2="49.9950624%" id="linearGradient-4">
            <stop stop-color="#1F49C9" offset="0%"></stop>
            <stop stop-color="#299AF0" offset="50.33%"></stop>
            <stop stop-color="#52D9DE" offset="100%"></stop>
        </linearGradient>
        <linearGradient x1="0.0662935281%" y1="49.9665533%" x2="100.012014%" y2="49.9665533%" id="linearGradient-5">
            <stop stop-color="#1F49C9" offset="0%"></stop>
            <stop stop-color="#299AF0" offset="50.33%"></stop>
            <stop stop-color="#52D9DE" offset="100%"></stop>
        </linearGradient>
        <linearGradient x1="0.0193962399%" y1="50.0059136%" x2="100.009996%" y2="50.0059136%" id="linearGradient-6">
            <stop stop-color="#1F49C9" offset="0%"></stop>
            <stop stop-color="#299AF0" offset="50.33%"></stop>
            <stop stop-color="#52D9DE" offset="100%"></stop>
        </linearGradient>
        <linearGradient x1="-0.0150651774%" y1="50.000689%" x2="99.9204254%" y2="50.000689%" id="linearGradient-7">
            <stop stop-color="#1F49C9" offset="0%"></stop>
            <stop stop-color="#299AF0" offset="50.33%"></stop>
            <stop stop-color="#52D9DE" offset="100%"></stop>
        </linearGradient>
        <linearGradient x1="-0.10454728%" y1="50.0309052%" x2="100.048172%" y2="50.0309052%" id="linearGradient-8">
            <stop stop-color="#1F49C9" offset="0%"></stop>
            <stop stop-color="#299AF0" offset="50.33%"></stop>
            <stop stop-color="#52D9DE" offset="100%"></stop>
        </linearGradient>
        <linearGradient x1="-0.0358917668%" y1="50.0077734%" x2="99.9564641%" y2="50.0077734%" id="linearGradient-9">
            <stop stop-color="#1F49C9" offset="0%"></stop>
            <stop stop-color="#299AF0" offset="50.33%"></stop>
            <stop stop-color="#52D9DE" offset="100%"></stop>
        </linearGradient>
        <linearGradient x1="-0.0241715309%" y1="49.9972507%" x2="99.9820953%" y2="49.9972507%" id="linearGradient-10">
            <stop stop-color="#1F49C9" offset="0%"></stop>
            <stop stop-color="#299AF0" offset="50.33%"></stop>
            <stop stop-color="#52D9DE" offset="100%"></stop>
        </linearGradient>
        <linearGradient x1="-0.114516234%" y1="49.957625%" x2="100.032136%" y2="49.957625%" id="linearGradient-11">
            <stop stop-color="#1F49C9" offset="0%"></stop>
            <stop stop-color="#299AF0" offset="50.33%"></stop>
            <stop stop-color="#52D9DE" offset="100%"></stop>
        </linearGradient>
        <linearGradient x1="-0.0394945607%" y1="49.9878851%" x2="100.101091%" y2="49.9878851%" id="linearGradient-12">
            <stop stop-color="#1F49C9" offset="0%"></stop>
            <stop stop-color="#299AF0" offset="50.33%"></stop>
            <stop stop-color="#52D9DE" offset="100%"></stop>
        </linearGradient>
        <linearGradient x1="0%" y1="0%" x2="100%" y2="0%" id="linearGradient-13">
            <stop stop-color="#FFFFFF" offset="0%"></stop>
            <stop stop-color="#9ED6F8" offset="56.8626918%"></stop>
            <stop stop-color="#52D8DE" offset="100%"></stop>
        </linearGradient>
        <linearGradient x1="100%" y1="-26.2016042%" x2="0%" y2="-26.2016042%" id="linearGradient-14">
            <stop stop-color="#FFFFFF" offset="0%"></stop>
            <stop stop-color="#97D0F7" offset="41.4273208%"></stop>
            <stop stop-color="#245FD3" offset="100%"></stop>
        </linearGradient>
        <linearGradient x1="100%" y1="-27.0570813%" x2="0%" y2="-27.0570813%" id="linearGradient-15">
            <stop stop-color="#FFFFFF" offset="0%"></stop>
            <stop stop-color="#9ED6F8" offset="53.0917853%"></stop>
            <stop stop-color="#287FE1" offset="100%"></stop>
        </linearGradient>
    </defs>
    <g id="Logo" stroke="none" stroke-width="1" fill="none" fill-rule="evenodd">
        <g id="Logo-Vector-Copy" transform="translate(-63.000000, -38.000000)">
            <g id="Group" transform="translate(63.000000, 38.000000)">
                <g id="Group-12" transform="translate(20.000000, 130.000000)">
                    <g id="Group-8">
                        <mask id="mask-2" fill="white">
                            <use xlink:href="#path-1"></use>
                        </mask>
                        <use id="VIDEO-GAME-MAKER" fill="#1F4FCF" xlink:href="#path-1"></use>
                        <polygon id="Rectangle" fill="url(#linearGradient-3)" mask="url(#mask-2)" points="-21.0823529 -12 533.082353 -12 533.082353 39 -21.0823529 39"></polygon>
                    </g>
                </g>
                <g id="LOGO_3D_B">
                    <g id="MANU_3D_B">
                        <path d="M287.715321,105.618018 L257.444481,105.618018 L287.715321,105.618018 M257.444481,0 L227.173641,0 L287.715321,105.618018 L302.898188,79.2612613 L257.444481,0" id="Shape" fill="url(#linearGradient-4)" fill-rule="nonzero"></path>
                        <polyline id="Path" fill="url(#linearGradient-5)" points="227.173641 52.809009 196.807908 105.618018 227.173641 105.618018 242.261614 79.1657658 227.173641 52.809009"></polyline>
                        <polyline id="Path" fill="url(#linearGradient-6)" points="439.164415 0 408.798682 52.809009 378.527842 0 348.257002 0 408.798682 105.618018 454.252389 26.4522523 439.164415 0"></polyline>
                        <polyline id="Path" fill="url(#linearGradient-7)" points="348.257002 52.809009 317.986161 105.618018 348.257002 105.618018 363.439868 79.1657658 348.257002 52.809009"></polyline>
                        <polyline id="Path" fill="url(#linearGradient-8)" points="499.706096 0 469.435255 0 499.706096 52.809009 514.794069 26.4522523 499.706096 0"></polyline>
                        <polyline id="Path" fill="url(#linearGradient-9)" points="560.247776 0 499.706096 105.618018 529.976936 105.618018 575.430643 26.4522523 560.247776 0"></polyline>
                        <polyline id="Path" fill="url(#linearGradient-10)" points="136.266227 0 75.724547 105.618018 105.995387 105.618018 136.266227 52.809009 166.537068 105.618018 181.719934 79.1657658 136.266227 0"></polyline>
                        <polyline id="Path" fill="url(#linearGradient-11)" points="45.4537068 52.809009 15.1828666 105.618018 45.4537068 105.618018 60.5416804 79.1657658 45.4537068 52.809009"></polyline>
                        <polyline id="Path" fill="url(#linearGradient-12)" points="75.724547 0 45.4537068 0 75.724547 52.809009 90.8125206 26.3567568 75.724547 0"></polyline>
                        <g id="SVGID_10_-link" transform="translate(181.245470, 0.000000)" fill="url(#linearGradient-13)">
                            <polyline id="SVGID_10_" points="45.9281713 0 0.47446458 79.1657658 15.5624382 105.618018 45.9281713 52.809009 76.1990115 105.618018 106.469852 105.618018 45.9281713 0"></polyline>
                        </g>
                        <g id="SVGID_12_-link" transform="translate(302.708402, 0.000000)" fill="url(#linearGradient-13)">
                            <polyline id="SVGID_12_" points="45.5485997 0 0.094892916 79.1657658 15.2777595 105.618018 45.5485997 52.809009 75.8194399 105.618018 106.09028 105.618018 45.5485997 0"></polyline>
                        </g>
                        <g id="SVGID_14_-link" transform="translate(392.856672, 0.000000)" fill="url(#linearGradient-14)">
                            <polygon id="SVGID_14_" points="15.9420099 0 0.854036244 26.4522523 15.9420099 52.809009 46.307743 0"></polygon>
                        </g>
                        <g id="SVGID_16_-link" fill="url(#linearGradient-13)">
                            <polyline id="SVGID_16_" points="45.4537068 0 0 79.1657658 15.1828666 105.618018 45.4537068 52.809009 75.724547 105.618018 136.266227 0 105.995387 0 90.8125206 26.3567568 90.8125206 26.3567568 75.724547 52.809009 45.4537068 0"></polyline>
                        </g>
                        <g id="SVGID_18_-link" transform="translate(120.514003, 52.522523)" fill="url(#linearGradient-15)">
                            <polyline id="SVGID_18_" points="15.7522241 0.286486486 0.664250412 26.6432432 15.7522241 53.0954955 46.0230643 53.0954955 15.7522241 0.286486486"></polyline>
                        </g>
                        <g id="SVGID_20_-link" transform="translate(453.588138, 0.000000)" fill="url(#linearGradient-13)">
                            <polyline id="SVGID_20_" points="106.659638 0 76.3887974 0 61.2059308 26.4522523 61.2059308 26.4522523 46.1179572 52.809009 15.847117 0 0.664250412 26.4522523 46.1179572 105.618018 106.659638 0"></polyline>
                        </g>
                    </g>
                </g>
            </g>
        </g>
    </g>
</svg>