<svg width="123" height="87" viewBox="0 0 123 87" fill="none" xmlns="http://www.w3.org/2000/svg">
<path d="M94.1091 61.2419C94.0508 61.2419 95.9185 60.1411 97.9613 57.4182C98.6616 56.4912 99.362 55.2167 99.4204 55.0429C100.821 52.4358 98.9535 49.8867 95.5099 49.8287C93.2337 49.7708 90.6656 52.0303 89.1481 54.1738C88.1559 55.5643 87.3388 57.4182 87.0469 58.1713C86.2298 60.1411 86.6384 62.6902 88.2142 64.0227C89.7901 65.3552 98.1364 64.7759 103.097 64.66C106.774 64.6021 107.358 58.1134 107.358 58.1134C107.358 58.1134 103.623 59.7356 100.763 60.4308C98.4282 60.9522 96.0352 61.126 94.1091 61.2419ZM91.4243 59.4459C90.8407 59.4459 88.7395 58.4031 92.008 55.2167C93.934 53.3628 95.6266 52.5517 96.0352 52.9572C96.6188 53.5366 96.327 54.1739 95.9768 54.927C95.7434 55.4484 92.5916 59.4459 91.4243 59.4459ZM47.4752 59.9094C44.2651 60.4887 42.9227 60.257 42.6893 59.0404C42.5725 58.3452 42.6309 55.7381 42.6893 53.4786C42.7476 51.5668 42.8643 49.9446 42.8643 49.9446C42.8643 49.9446 40.1795 50.9875 39.9461 51.4509C39.7126 51.9144 37.8449 47.6852 33.4092 51.2192C32.1835 52.2041 31.0162 53.4786 30.1407 54.8111C27.8644 58.2293 26.9306 62.1688 28.5648 63.9648C30.7827 66.456 34.1679 64.1386 35.3936 63.2696C36.5609 62.4006 38.7204 60.257 38.7204 60.257C38.7204 60.257 38.4869 64.2545 40.7632 64.4862C43.0394 64.718 49.6347 64.6021 51.2106 63.8489C53.8954 62.6323 53.9538 57.1865 53.9538 57.1865C53.9538 57.1865 50.7437 59.2721 47.4752 59.9094ZM37.9617 55.9119C37.1445 57.2444 34.5181 61.995 32.0668 59.5618C31.2496 58.7507 33.1173 56.3754 34.985 54.4635C35.0434 54.3476 35.1601 54.2897 35.2185 54.2318C36.3858 53.189 37.5531 52.8414 37.9033 53.131C38.1951 53.3628 38.3702 53.5945 38.4869 53.8842C38.662 54.4056 38.4869 55.0429 37.9617 55.9119ZM119.09 59.5038C119.031 58.9824 119.031 57.6499 119.09 56.1436C119.148 53.4207 119.44 49.5391 119.44 49.5391C119.44 49.5391 118.623 49.8287 117.805 50.4081C116.988 50.9874 116.813 50.9874 116.813 52.2041C116.813 52.7834 116.872 54.8691 116.755 55.9698C116.521 57.8237 116.463 60.6625 114.946 60.9522C111.911 61.5315 112.261 57.8237 112.494 54.8691C112.728 51.9723 114.245 34.3023 114.245 34.3023C114.245 34.3023 106.716 36.7935 107.183 37.199C107.65 37.6046 107.708 37.199 108.292 37.8942C108.7 38.3577 108.584 48.2066 108.642 55.2167C108.642 58.6928 108.584 62.5744 108.817 63.1537C109.518 64.8338 110.16 64.4862 112.261 64.4862C114.128 64.4862 120.665 64.4862 120.665 64.4862C120.665 64.4862 120.665 67.0353 119.673 67.6147C118.681 68.194 115.296 67.9044 114.07 67.6726C112.786 67.4988 109.576 66.1663 109.576 66.1663C109.576 66.1663 110.451 71.4384 114.654 71.4963C120.782 71.6122 121.424 69.063 121.891 68.194C122.825 66.5719 123 61.8792 123 61.8792C123 61.8792 119.265 61.0101 119.09 59.5038ZM25.9968 58.5189C25.238 59.0983 19.7517 59.9673 18.4676 59.7935C17.6505 59.6776 17.4754 59.33 17.3587 58.5189C17.3003 58.0555 17.3003 57.4182 17.242 56.6071C17.1252 54.4635 19.0513 33.5491 18.9345 31L10.6467 34.0126C10.8801 34.7658 11.5222 35.7506 11.814 36.6197C12.2809 38.0101 12.2809 38.2418 12.3976 38.7633C13.2147 43.2242 13.2147 48.5542 12.2809 49.597C9.88792 52.8993 7.14475 54.058 6.26927 52.2041C4.6934 48.6121 7.14475 38.2998 7.02802 35.3451L0.0825404 37.8363C0.024175 38.6474 -0.0341895 40.2695 0.0241759 41.602C0.0241759 42.529 0.140906 51.2771 0.666194 53.189C1.19148 55.1008 1.89186 58.461 6.67782 56.9547C8.66225 56.3174 10.4716 54.8111 12.2809 53.5366V61.1839C12.2809 62.5744 12.456 63.6751 13.098 64.5442C13.9735 65.7028 23.7205 65.4711 24.5376 63.9069C25.4715 62.1688 26.7555 57.9396 25.9968 58.5189ZM84.8874 54.2318C84.4205 51.8565 84.187 49.7129 82.6112 49.3653C80.9186 48.9597 79.3427 49.3074 75.6073 50.9295C75.6657 48.9597 75.7824 47.9169 75.7824 47.9169C75.7824 47.9169 70.5295 50.1764 70.8797 50.524C71.2299 50.8716 71.2883 50.524 71.7552 51.1613C71.7552 51.1613 71.8136 51.2192 71.8136 51.2771C71.8136 51.2771 72.6307 61.5315 72.3972 64.0807C72.1054 67.8464 70.8214 67.7885 62.1249 67.8464C56.8137 67.8464 52.2028 67.2091 52.2028 67.2091C52.2028 67.2091 52.3195 73.524 66.619 73.9875C74.9653 74.2772 74.7902 69.4686 75.082 66.5719C75.2571 64.3124 75.3155 63.3275 75.4322 61.7633C75.549 59.2721 75.549 55.7381 75.9575 54.927C76.2493 54.2897 77.1832 53.8262 77.5917 53.6524C78.9925 53.131 80.5684 52.262 81.2688 52.8993C82.261 53.7683 81.6189 61.126 79.4594 60.0252C78.9341 59.7356 77.9419 59.4459 77.2999 59.4459C76.7163 59.2142 75.3739 64.2545 81.152 64.7759C85.938 65.1814 85.4711 60.0832 85.2376 56.9547C85.1209 55.9119 85.0625 55.0429 84.8874 54.2318ZM55.8215 63.0378C55.9966 63.791 56.6969 64.4283 57.5141 64.4283C61.5996 64.66 64.4012 64.718 67.086 64.4283C68.0782 64.3124 69.8291 63.5593 69.8875 62.2268C70.2377 59.0404 69.479 54.5794 69.012 52.3779C68.4867 49.7708 67.2611 47.5693 64.2844 48.7859C60.0821 50.524 62.1249 53.5945 62.6502 53.3048C63.4673 52.7834 64.7514 52.7834 65.0432 53.6524C65.5685 55.3905 66.0354 56.9547 66.1521 58.9824C66.0938 59.2721 66.1521 60.1991 65.6268 60.4308C64.9265 60.7205 62.3 61.2998 60.9576 60.4308C60.7825 60.3149 60.6658 60.1411 60.6074 60.0832C60.0821 58.9824 58.9148 52.2041 59.3234 50.1764C59.4401 49.9446 59.5568 49.4811 59.6736 49.3073C61.1327 47.2217 63.0004 47.3376 67.6696 44.6726C74.2649 40.9068 71.2883 37.1411 71.2883 37.1411C71.2883 37.1411 71.2299 37.3728 69.4206 38.5315C67.6696 39.5743 61.3662 42.5869 59.3817 43.8036C58.3312 44.4988 57.5724 44.9623 56.5802 45.9471C56.1716 46.4106 55.7631 47.5114 55.588 48.8439C55.2378 50.9295 55.4129 57.592 55.4129 57.592C55.2962 61.6474 55.7047 62.5744 55.8215 63.0378Z" fill="white"/>
<path fill-rule="evenodd" clip-rule="evenodd" d="M40.1705 80.4187L39.4754 80.5875C39.4175 80.5875 39.3596 80.6437 39.3596 80.7562V83.4562C38.9541 83.625 38.5486 83.6813 38.1432 83.6813C37.7956 83.6813 37.506 83.625 37.3322 83.4562C37.1585 83.2875 37.0426 83.0625 37.0426 82.7812V80.5312C37.0426 80.475 36.9847 80.4187 36.9268 80.4187H36.8109L36.1158 80.5875C36.0579 80.5875 36 80.6437 36 80.7562V82.6687C36 82.8937 36 83.1188 36.0579 83.3438C36.1158 83.5687 36.2317 83.7375 36.4055 83.9625C36.5792 84.1313 36.8109 84.3 37.1005 84.3562C37.3902 84.4687 37.6798 84.4688 38.0273 84.4688C38.259 84.4688 38.4328 84.4687 38.6645 84.4125C38.8962 84.3562 39.1279 84.3 39.3596 84.2438V86.6062C39.3596 86.7187 39.4175 86.775 39.5333 86.775H40.2284C40.3443 86.775 40.4022 86.7187 40.4022 86.6062V80.5312C40.4022 80.475 40.3443 80.4187 40.2863 80.4187H40.1705ZM48.4536 86.0437C48.3377 85.8187 48.2798 85.4812 48.2798 85.1437V82.1625C48.2798 80.9812 47.5847 80.4187 46.2525 80.4187C45.6153 80.4187 45.0361 80.5312 44.4568 80.8125C44.3989 80.8688 44.341 80.8687 44.2251 80.925C44.1672 80.9812 44.1672 80.9812 44.1672 81.0375V81.15L44.341 81.6562C44.341 81.6562 44.341 81.6563 44.341 81.7125H44.3989L44.5727 81.6562C45.0361 81.4313 45.5574 81.3187 46.0208 81.3187C46.4841 81.3187 46.7738 81.4313 46.9475 81.7125C47.0634 81.8813 47.1213 82.1625 47.1213 82.5V82.95H47.0634C46.8317 82.95 46.6 82.95 46.3104 83.0062C46.0208 83.0625 45.7891 83.0625 45.5574 83.1188C44.9202 83.2875 44.3989 83.5688 44.1093 83.9625C43.8197 84.3 43.7038 84.6937 43.7038 85.2C43.7038 85.7062 43.8197 86.1 44.1093 86.4375C44.3989 86.8313 44.8623 87 45.4994 87C45.9049 87 46.3104 86.8875 46.6579 86.7188C46.8317 86.6062 47.0634 86.4375 47.2951 86.2125L47.353 86.1562V86.2125C47.4109 86.3813 47.4688 86.4937 47.4688 86.55C47.4688 86.6062 47.5268 86.7188 47.5847 86.775C47.7005 86.9438 47.7585 87 47.8164 87C47.8743 87 47.9322 87 47.9322 86.9437L48.5115 86.6062C48.5115 86.6062 48.5694 86.55 48.5694 86.4938L48.5115 86.3812L48.4536 86.0437ZM47.2951 85.3688L47.2372 85.425C47.0634 85.5937 46.8896 85.7625 46.6579 85.875C46.3104 86.0437 46.0787 86.1562 45.7891 86.1562C45.5574 86.1562 45.3257 86.1 45.1519 85.9313C44.9202 85.7625 44.8044 85.4812 44.8044 85.1437C44.8044 84.75 44.9202 84.4688 45.2098 84.2438C45.6153 83.9063 46.2525 83.7375 47.2372 83.7375H47.2951V85.3688ZM56.6208 80.4187L55.8678 80.5875C55.8678 80.5875 55.8098 80.5875 55.8098 80.6437L53.7825 84.075L53.0874 85.2562L53.1453 84.0187V80.5312C53.1453 80.475 53.0874 80.4187 53.0295 80.4187H52.9137L52.4503 80.5312L52.1607 80.5875C52.1027 80.5875 52.0448 80.6437 52.0448 80.7562V86.6062C52.0448 86.7187 52.1027 86.775 52.2186 86.775H52.9137C52.9716 86.775 53.0295 86.775 53.0874 86.7188L55.1148 83.2875L55.8098 82.1062L55.7519 83.3438V86.6062C55.7519 86.7187 55.8098 86.775 55.9257 86.775H56.6208C56.7366 86.775 56.7945 86.7187 56.7945 86.6062V80.5312C56.7366 80.475 56.7366 80.4187 56.6787 80.4187H56.6208ZM54.4776 79.6875C54.941 79.6875 55.2885 79.575 55.5781 79.35C55.8678 79.125 56.0415 78.8437 56.1574 78.45L56.2153 78.225C56.2153 78.1687 56.2153 78.1125 56.1574 78.1125C56.1574 78.1125 56.0994 78.1125 56.0415 78.0563L55.5781 78H55.4623C55.4044 78 55.3464 78.0562 55.3464 78.1125L55.2885 78.2812C55.2306 78.5625 55.1148 78.7312 54.941 78.8438C54.8251 78.9563 54.6514 78.9562 54.4776 78.9562C54.3038 78.9562 54.13 78.9 54.0142 78.8438C53.8404 78.7312 53.7246 78.5625 53.6667 78.2812L53.6087 78.1125C53.6087 78 53.4929 78 53.377 78L52.9137 78.0563H52.8557C52.7978 78.1125 52.7399 78.1687 52.7399 78.225L52.7978 78.3937C53.0295 79.2937 53.6087 79.6875 54.4776 79.6875ZM63.1082 83.5125L65.0776 80.9812C65.1355 80.925 65.1355 80.925 65.1355 80.8688C65.1355 80.8125 65.0776 80.8125 65.0197 80.7562L64.3825 80.5312H64.2667C64.2087 80.5312 64.1508 80.5875 64.0929 80.6437L62.529 82.8937L61.0229 80.6437C60.965 80.5312 60.8492 80.5313 60.7333 80.5875L60.5596 80.6437L60.0962 80.8125C60.0962 80.8125 60.0382 80.8687 59.9803 80.925L60.0382 81.0375L61.9497 83.6813L59.7486 86.4375C59.6907 86.4937 59.6907 86.4937 59.6907 86.55C59.6907 86.6062 59.6907 86.6062 59.7486 86.6062L60.3858 86.8875C60.5016 86.9437 60.6175 86.8875 60.6754 86.8312L61.9497 85.0312L62.4131 84.3562C62.529 84.525 62.6448 84.8063 62.8186 85.0312L64.035 86.8312C64.0929 86.8875 64.1508 86.9437 64.2087 86.9437H64.3246L64.9617 86.6625C64.9617 86.6625 65.0197 86.6062 65.0197 86.55L64.9617 86.4375L63.1082 83.5125ZM72.4918 86.0437C72.376 85.8187 72.318 85.4812 72.318 85.1437V82.1625C72.318 80.9812 71.6229 80.4187 70.2907 80.4187C69.6535 80.4187 69.0743 80.5312 68.4951 80.8125C68.4372 80.8688 68.3213 80.8687 68.2634 80.925C68.2055 80.9812 68.2055 80.9812 68.2055 81.0375V81.15L68.3792 81.6562C68.3792 81.6562 68.3792 81.6563 68.3792 81.7125H68.4372L68.6109 81.6562C69.0743 81.4313 69.5956 81.3187 70.059 81.3187C70.5224 81.3187 70.812 81.4313 70.9858 81.7125C71.1016 81.8813 71.1596 82.1625 71.1596 82.5V82.95H71.2754C71.0437 82.95 70.812 82.95 70.5224 83.0062C70.2328 83.0625 70.0011 83.0625 69.7694 83.1188C69.1322 83.2875 68.6109 83.5688 68.3213 83.9625C68.0317 84.3 67.9158 84.6937 67.9158 85.2C67.9158 85.7062 68.0317 86.1 68.3213 86.4375C68.6109 86.8313 69.0743 87 69.7115 87C70.1169 87 70.5224 86.8875 70.8699 86.7188C71.0437 86.6062 71.2754 86.4375 71.5071 86.2125L71.565 86.1562V86.2125C71.6229 86.3813 71.6809 86.4937 71.6809 86.55C71.6809 86.6062 71.7388 86.7188 71.7967 86.775C71.9126 86.9438 71.9705 87 72.0284 87C72.0863 87 72.1443 87 72.1443 86.9437L72.7235 86.6062C72.7235 86.6062 72.7814 86.55 72.7814 86.4938L72.7235 86.3812L72.4918 86.0437ZM71.3333 85.3688L71.2754 85.425C71.1016 85.5937 70.9279 85.7625 70.6962 85.875C70.3486 86.0437 70.1169 86.1562 69.8273 86.1562C69.5956 86.1562 69.3639 86.1 69.1902 85.9313C68.9585 85.7625 68.9005 85.4812 68.9005 85.1437C68.9005 84.75 69.0164 84.4688 69.306 84.2438C69.7115 83.9063 70.3486 83.7375 71.3333 83.7375H71.3913V85.3688H71.3333ZM80.5432 80.4187L79.8481 80.5875C79.7902 80.5875 79.7322 80.6437 79.7322 80.7562V83.2312H77.1836V80.5875C77.1836 80.5313 77.1257 80.475 77.0678 80.475H76.9519L76.5464 80.5875L76.2568 80.6437C76.1989 80.6437 76.141 80.7 76.141 80.8125V86.7188C76.141 86.8313 76.1989 86.8875 76.3147 86.8875H77.0098C77.1257 86.8875 77.1836 86.8313 77.1836 86.7188V84.075H79.7322V86.7188C79.7322 86.8313 79.7902 86.8875 79.906 86.8875H80.6011C80.7169 86.8875 80.7749 86.8313 80.7749 86.7188V80.6437C80.7749 80.5875 80.7169 80.5312 80.659 80.5312H80.5432V80.4187ZM89 86.3812L88.8262 86.0437C88.7104 85.8187 88.6525 85.4812 88.6525 85.1437V82.1625C88.6525 80.9812 87.9574 80.4187 86.6251 80.4187C85.988 80.4187 85.4087 80.5312 84.8295 80.8125C84.7716 80.8688 84.6557 80.8687 84.5978 80.925C84.5399 80.9812 84.482 80.9812 84.482 81.0375V81.15L84.6557 81.6562C84.6557 81.6562 84.6557 81.6563 84.6557 81.7125H84.7137L84.8874 81.6562C85.3508 81.4313 85.8721 81.3187 86.3355 81.3187C86.7989 81.3187 87.0885 81.4313 87.2623 81.7125C87.3781 81.8813 87.4361 82.1625 87.4361 82.5V82.95H87.3781C87.1464 82.95 86.9147 82.95 86.6251 83.0062C86.3355 83.0625 86.1038 83.0625 85.8721 83.1188C85.235 83.2875 84.7137 83.5688 84.424 83.9625C84.1344 84.3 84.0186 84.6937 84.0186 85.2C84.0186 85.7062 84.1344 86.1 84.424 86.4375C84.7716 86.8313 85.177 87 85.8142 87C86.2197 87 86.6251 86.8875 86.9727 86.7188C87.1464 86.6062 87.3781 86.4375 87.6098 86.2125L87.6677 86.1562V86.2125C87.7257 86.3813 87.7836 86.4937 87.7836 86.55C87.7836 86.6062 87.8415 86.7188 87.8995 86.775C88.0153 86.9438 88.0732 87 88.1311 87C88.1891 87 88.247 87 88.247 86.9437L88.8262 86.6062C88.8262 86.6062 88.8841 86.55 88.8841 86.4938L89 86.3812ZM87.6677 85.3688L87.6098 85.425C87.4361 85.5937 87.2623 85.7625 87.0306 85.875C86.741 86.0437 86.3934 86.1562 86.1618 86.1562C85.9301 86.1562 85.6984 86.1 85.5246 85.9313C85.2929 85.7625 85.235 85.4812 85.235 85.1437C85.235 84.75 85.3508 84.4688 85.6404 84.2438C86.0459 83.9063 86.683 83.7375 87.6677 83.7375H87.7257V85.3688H87.6677Z" fill="white"/>
<path d="M47.784 12.3934C46.7305 14.7123 46.672 17.388 48.0181 19.5881C49.2472 21.5502 51.5298 23.2151 53.9295 22.9773C55.9195 22.7989 58.1436 21.5503 59.1971 19.6475C60.1335 17.9232 60.3091 15.6042 59.4897 13.761C58.3192 11.2042 54.1051 8.8258 51.4713 11.9177C50.2422 13.3448 50.4178 15.5448 51.881 16.7934C53.3442 18.0421 55.4513 17.8637 56.6804 16.3772C57.4412 15.4259 57.6753 14.2367 57.3827 13.1664C57.7339 13.4637 58.0265 13.8799 58.2606 14.3556C58.9044 15.7826 58.7874 17.5664 58.0265 18.934C57.2071 20.4205 55.4513 21.3719 53.871 21.4908C52.0566 21.6097 50.2422 20.2421 49.3058 18.7556C48.1937 16.9718 48.3108 14.7718 49.1887 12.9285C49.9496 11.2042 51.4128 9.53931 53.4028 8.29065C55.861 6.74469 58.8459 4.36629 59.8994 1.45275C61.5382 4.12845 64.6988 5.85279 67.5081 7.04199C69.6737 7.93389 71.371 9.30147 72.4245 10.9069C73.5951 12.5718 74.1219 14.7123 73.3025 16.6745C72.6586 18.3394 71.0784 20.0043 69.264 20.1827C67.6837 20.361 65.8108 19.707 64.7573 18.3989C63.8208 17.2097 63.3526 15.4853 63.7038 13.9394C63.8208 13.4042 64.0549 12.988 64.3476 12.5718C64.2305 13.7015 64.6402 14.8907 65.5767 15.6637C67.0399 16.8529 69.2055 16.6745 70.376 15.188C71.5466 13.7015 71.371 11.5015 69.9078 10.3123C66.7473 7.75551 63.0014 10.9069 62.2991 13.5826C61.7723 15.5448 62.3576 17.7448 63.5867 19.2908C64.9329 20.9556 67.3325 21.7881 69.3225 21.6097C71.6637 21.3719 73.6536 19.3502 74.5315 17.2097C75.468 14.7718 74.9413 12.1556 73.478 10.0745C72.2489 8.29065 70.3175 6.7447 67.9178 5.73388C63.7623 4.00953 61.8309 2.1068 61.0115 0.798681C60.3091 -0.331061 58.963 -0.271604 58.4362 1.03652C57.8509 2.46356 56.2707 4.72305 52.5248 7.16091C50.3008 8.5285 48.662 10.4312 47.784 12.3934ZM55.5098 12.1556C55.6854 12.3339 53.2272 11.9177 52.1737 12.5718C53.5783 11.5015 55.3342 11.9177 55.5098 12.1556ZM56.2121 12.8096C56.4462 13.0475 51.8225 13.0475 51.8225 13.0475C53.4613 12.5123 55.978 12.5718 56.2121 12.8096ZM56.4462 13.5826C56.3292 13.9394 51.7054 13.5231 51.7054 13.5231C53.3442 13.2853 56.5048 13.2853 56.4462 13.5826ZM52.3492 15.8421C52.876 15.7826 55.1586 16.1394 54.866 16.4367C54.5733 16.7934 52.5248 15.961 52.3492 15.8421ZM55.7439 15.8421C55.4513 16.0799 52.0566 15.2475 51.9395 15.188C52.7589 15.1286 55.978 15.6042 55.7439 15.8421ZM56.2707 15.188C55.978 15.4853 51.6469 14.7123 51.6469 14.7123C53.5198 14.534 56.5633 14.8907 56.2707 15.188ZM56.5633 14.415C56.3877 14.7718 51.5884 14.0583 51.5884 14.0583C52.7004 13.9394 56.7389 14.1177 56.5633 14.415ZM67.2155 15.3069C66.8643 15.0691 69.0299 14.2961 69.5566 14.2367C69.4981 14.415 67.5667 15.6042 67.2155 15.3069ZM66.279 14.8907C65.9279 14.7123 69.0884 13.6421 69.9078 13.5826C69.7907 13.6421 66.6302 15.1286 66.279 14.8907ZM65.6352 14.3556C65.284 14.0583 68.2105 13.1664 70.0834 13.0475C70.0834 13.0475 65.9279 14.5934 65.6352 14.3556ZM65.2255 13.6421C64.9914 13.3448 68.9713 12.4529 70.0834 12.3934C70.0834 12.3934 65.4596 13.9394 65.2255 13.6421ZM69.8493 11.9177C69.8493 11.9177 65.3426 13.1069 65.2255 12.8096C65.0499 12.4529 68.2105 11.9177 69.8493 11.9177ZM69.6737 11.3826C69.6737 11.3826 65.1085 12.2745 65.284 11.9772C65.4596 11.6799 67.9178 11.2042 69.6737 11.3826ZM69.2055 10.9664C68.0349 10.5501 65.6937 11.3826 65.8108 11.2042C65.9864 10.9664 67.6252 10.2528 69.2055 10.9664Z" fill="white"/>
<path fill-rule="evenodd" clip-rule="evenodd" d="M34.5223 27.8953C30.8471 33.148 34.5223 39.4154 38.1976 42.2209C41.6978 44.9069 45.9564 45.3844 49.9817 44.31C48.2899 45.8619 48.6983 49.3837 50.9734 48.9658C51.7902 48.7868 52.3152 48.0108 52.1985 47.1751C52.0235 46.2201 50.9734 45.6232 50.0984 46.041C50.0401 45.6232 49.9817 44.7278 50.7984 44.0713C57.9156 41.803 64.0993 34.879 63.6326 27.2984C72.0332 36.7891 76.8752 31.417 85.7425 32.6108C88.3676 32.969 90.0594 34.4015 90.2928 35.7147C89.7094 36.61 89.8261 37.8635 90.5845 38.7589C91.5178 39.7736 93.093 39.893 93.968 38.9379C95.6598 37.1472 95.0181 34.7596 93.8513 33.4465C90.8761 30.1038 84.3424 31.8348 82.3589 31.417C86.4425 26.9403 85.8591 23.0604 83.8757 20.7325C80.4921 16.7333 75.3584 17.1511 72.6749 21.807C71.0415 24.6721 74.4834 29.4473 76.8752 27.179C78.567 25.5674 76.5835 22.6426 74.5417 23.7767C74.0167 21.9263 75.8835 21.3294 77.5169 21.9263C79.3254 22.5232 81.4838 25.6868 78.742 28.5519C76.2335 31.1186 71.7415 32.6108 67.5996 29.5666C69.9331 29.5069 71.5665 26.1046 69.3497 25.3287C68.6496 25.0302 67.8329 25.448 67.5412 26.1643C67.2496 27.0597 67.8329 27.955 68.708 28.0744C68.5913 28.4922 68.1829 29.2085 67.1912 29.3279C63.341 26.2837 62.9909 22.2845 62.9909 22.2845C62.6992 21.5085 61.7075 20.7325 61.1241 20.6729C63.4576 26.7015 60.4824 30.8798 57.5072 32.6705C53.7736 34.9387 49.0483 31.7155 50.0984 26.9403C50.1567 27.0597 50.2734 27.179 50.3317 27.2387C51.1485 28.1341 52.4902 28.1341 53.3653 27.2984C54.2403 26.4628 54.357 25.0302 53.5403 24.1945C51.5568 22.1651 48.9316 24.6124 48.6983 26.7612C48.4066 29.0891 49.165 32.3721 52.1985 33.9837C56.5155 36.1922 59.7824 32.3124 61.1825 31.8348C59.374 38.5201 53.8903 42.1015 48.6983 42.6984C47.2399 42.2806 47.0065 41.1465 46.9482 40.5496C48.0566 40.7286 49.1067 39.7736 48.99 38.5798C48.8733 37.5651 47.9982 36.8488 47.0649 36.9085C44.148 37.2069 45.0231 41.8627 47.8816 42.7581C44.9647 42.9372 42.2229 42.1612 40.2977 40.4899C36.9725 37.6248 36.7392 33.9837 38.6059 32.9093C41.8728 36.3116 47.5899 31.2976 43.1563 26.4628C40.9394 23.8364 37.2642 23.9558 34.5223 27.8953ZM80.1421 19.7178C80.4921 20.0163 79.3254 21.807 79.267 22.0457C79.3837 20.6132 79.7921 19.3597 80.1421 19.7178ZM81.1922 20.076C81.1922 20.4341 79.6754 22.6426 79.6754 22.6426C80.4921 19.5984 81.1922 19.7178 81.1922 20.076ZM82.1255 20.3147C82.2422 20.7325 80.0837 23.0604 80.0837 23.0604C80.9588 21.0907 82.0089 19.8969 82.1255 20.3147ZM80.2004 23.6573C82.4756 21.031 82.8256 20.4341 83.234 20.8519C83.584 21.3294 80.2004 23.6573 80.2004 23.6573ZM83.8757 27.7162C83.2923 28.2535 80.5505 27.2387 80.5505 27.2387C81.4838 27.4775 84.459 27.179 83.8757 27.7162ZM84.0507 21.9263C84.2257 22.3442 80.5505 24.2542 80.5505 24.2542C83.409 21.986 83.8757 21.4488 84.0507 21.9263ZM80.6088 25.0302C83.6423 23.0007 84.6341 22.4635 84.4007 23.1201C84.1674 23.7767 80.6088 25.0302 80.6088 25.0302ZM84.6924 24.7914C84.284 25.3883 80.7255 25.8659 80.7255 25.8659C83.8757 24.493 85.1008 24.1945 84.6924 24.7914ZM80.5505 26.6418C82.2422 25.9852 84.7507 25.7465 84.459 26.224C84.1674 26.7015 81.0172 26.5225 80.5505 26.6418ZM33.5889 33.6255C36.0974 33.148 37.9059 32.8496 37.3225 33.3868C36.8558 33.9837 33.5889 33.6255 33.5889 33.6255ZM33.939 34.9387C36.5058 34.2821 36.9142 34.4015 36.5641 34.8193C36.1558 35.2372 33.939 34.9387 33.939 34.9387ZM36.8558 38.2814C36.6225 38.7589 35.5724 38.5201 35.5724 38.5201C36.0391 38.341 37.0308 37.8038 36.8558 38.2814ZM36.4475 37.2666C36.0391 37.6248 34.814 37.4457 34.814 37.4457C36.0974 36.7891 36.8558 36.8488 36.4475 37.2666ZM36.5058 35.8938C36.2725 36.3116 34.3473 36.1922 34.3473 36.1922C34.989 35.9534 36.7392 35.4759 36.5058 35.8938ZM43.4479 31.6558C42.8646 32.1333 33.6473 32.6108 33.6473 32.6108C45.1981 30.462 44.0313 31.1186 43.4479 31.6558ZM44.0313 30.2829C43.5063 30.7604 33.8223 31.417 33.8223 31.417C45.6064 28.9697 44.5564 29.8054 44.0313 30.2829ZM43.4479 28.7907C42.9812 29.2682 34.0556 30.2829 34.0556 30.2829C44.498 27.5969 43.9146 28.3131 43.4479 28.7907ZM40.9394 25.8659C41.0561 26.5224 36.9142 26.9403 36.9142 26.9403C37.6142 26.7612 40.8228 25.2093 40.9394 25.8659ZM42.5145 27.179C42.3395 27.7162 34.5807 29.1488 34.5807 29.1488C42.3395 26.4031 42.6896 26.6418 42.5145 27.179Z" fill="white"/>
<path fill-rule="evenodd" clip-rule="evenodd" d="M97.4337 85.8933C96.3253 86.2392 95.1553 85.7203 94.7858 84.6826C94.3547 83.4719 95.2784 82.2036 96.5716 82.0883C96.3253 81.3965 95.5247 80.0128 93 80.3587C97.4337 78.4562 101.252 84.6826 97.4337 85.8933Z" fill="white"/>
<path fill-rule="evenodd" clip-rule="evenodd" d="M27.5663 80.1067C28.6747 79.7608 29.8447 80.2797 30.2142 81.3174C30.6453 82.5281 29.7216 83.7964 28.4284 83.9117C28.6747 84.6035 29.4753 85.9872 32 85.6413C27.5663 87.5438 23.7484 81.3174 27.5663 80.1067Z" fill="white"/>
</svg>
