<svg width="309" height="92" viewBox="0 0 309 92" fill="none" xmlns="http://www.w3.org/2000/svg">
<path d="M43.6762 10.9473C47.7487 11.5886 50.6758 12.8711 52.7121 14.5383C54.7484 16.3338 55.8938 18.2575 56.2756 20.4377C56.6574 22.6179 56.4029 24.9264 55.3847 27.3631C54.4939 29.7998 53.0939 31.98 51.3122 34.032C49.5304 36.0839 47.3669 37.6229 45.0761 38.9054C42.658 40.1879 40.24 40.8291 37.6946 40.8291C35.4038 40.8291 33.6221 40.3161 32.2221 39.2901C30.8222 38.2642 29.9313 36.9817 29.295 35.6992C28.7859 34.4167 28.6587 33.2625 29.0405 32.1082C29.4223 31.0823 30.1859 30.441 31.4585 30.441C33.113 30.441 34.7675 30.0563 36.5492 29.415C38.331 28.7738 39.8582 27.8761 41.3854 26.8501C42.9126 25.8241 44.1852 24.7981 45.3306 23.6439C46.476 22.4897 47.2396 21.3354 47.6214 20.4377C48.0032 19.4117 48.0032 18.6422 47.4942 17.8727C46.9851 17.2315 45.8397 16.8468 44.1852 16.8468C41.6399 16.8468 39.0946 17.7445 36.4219 19.54C33.7493 21.3354 31.204 23.6439 28.6587 26.4653C26.1133 29.415 23.8225 32.6212 21.659 36.3404C19.4955 40.0596 17.5865 43.7788 15.932 47.6263C14.2775 51.4737 13.0048 55.3211 11.9867 58.9121C11.0958 62.6312 10.5868 65.8375 10.5868 68.7872C10.5868 71.7369 11.2231 74.0453 12.2412 75.7125C13.3866 77.508 15.1684 78.4057 17.5865 78.4057C21.659 78.4057 25.0952 77.8928 27.8951 76.7385C30.8222 75.5843 33.113 74.3018 35.022 72.6346C36.931 70.9674 38.4582 69.3001 39.6036 67.6329C40.749 65.8374 41.6399 64.2985 42.149 63.016C42.658 61.7335 43.4216 60.8358 44.1852 60.3228C44.9488 59.8098 45.7124 59.6815 46.3488 59.938C46.9851 60.1945 47.3669 60.7075 47.6214 61.7335C47.876 62.6313 47.7487 63.9137 47.1124 65.3245C46.476 66.8634 45.4579 68.6589 44.058 70.7109C42.658 72.8911 40.6218 74.8148 38.2037 76.8668C35.7856 78.7905 32.8585 80.4577 29.4223 81.8684C25.9861 83.2792 22.0408 83.9204 17.5865 83.9204C13.8957 83.9204 10.714 82.7662 8.1687 80.4577C5.62336 78.1492 3.5871 75.0713 2.31443 71.3521C0.914492 67.6329 0.150887 63.4007 0.0236196 58.6556C-0.103647 53.9104 0.278153 49.1652 1.29629 44.4201C2.31442 39.6749 3.96889 35.058 6.2597 30.5693C8.5505 26.0806 11.4776 22.2332 14.9139 19.027C18.4773 15.8208 22.5499 13.3841 27.2587 11.8451C32.2221 10.1779 37.6946 9.92136 43.6762 10.9473Z" fill="#212121"/>
<path d="M70.5317 1.84173C70.9135 0.815745 71.6772 0.302752 72.568 0.0462562C73.5862 -0.0819918 74.6043 0.0462581 75.7497 0.55925C76.8951 0.943993 78.0405 1.71348 79.3131 2.61121C80.5858 3.50895 81.604 4.53493 82.4948 5.68917C83.3857 6.8434 84.1493 7.99763 84.5311 9.28011C85.0402 10.5626 85.0402 11.5886 84.7856 12.7428C84.6584 13.384 83.8948 14.7948 82.6221 16.8467C81.3494 18.8987 79.8222 21.3354 77.9132 24.2851C76.0042 27.2348 73.9679 30.441 71.6771 34.1602C69.3863 37.7511 66.9683 41.4703 64.5502 45.3178C62.1321 49.1652 59.7141 52.8844 57.4233 56.7318C55.1324 60.5793 52.9689 64.042 51.1872 67.3764C52.9689 64.8114 55.0052 62.1182 57.296 59.2968C59.4595 56.3471 61.6231 53.6539 63.7866 51.0889C65.9501 48.524 67.8591 46.2155 69.7681 44.2918C71.5499 42.3681 73.0771 41.0856 74.2225 40.3161C75.2406 39.6749 76.5133 39.5466 77.9132 39.8031C79.3132 40.0596 80.7131 40.7008 81.9858 41.5986C83.2584 42.4963 84.2766 43.5223 84.9129 44.8048C85.6765 46.0873 85.8038 47.3697 85.5492 48.7805C85.2947 49.8064 84.5311 51.3454 83.513 53.1409C82.4948 55.0646 81.3494 57.1166 80.0768 59.2968C78.8041 61.477 77.5314 63.7855 76.1315 65.9657C74.8588 68.2742 73.7134 70.1979 72.8225 71.9933C71.9317 73.7888 71.4226 75.1995 71.1681 76.3538C70.9135 77.508 71.2953 78.021 72.1862 77.8927C73.5862 77.7645 74.9861 77.2515 76.5133 76.0973C78.0405 75.0713 79.5677 73.7888 80.9676 72.2498C82.3676 70.7109 83.6402 69.1719 84.9129 67.5047C86.0583 65.8374 86.9492 64.2985 87.4582 63.016C88.0946 61.7335 88.7309 60.8358 89.4945 60.3228C90.2581 59.8098 91.0217 59.6815 91.6581 59.938C92.2944 60.1945 92.8035 60.7075 92.9307 61.6053C93.1853 62.503 92.9307 63.6572 92.4216 65.1962C91.9126 66.7352 90.8944 68.5306 89.4945 70.5826C88.0946 72.7628 86.4401 74.8148 84.4038 76.7385C82.3676 78.6622 80.204 80.3294 77.9132 81.7402C75.4952 83.1509 73.0771 83.7921 70.659 83.7921C68.4955 83.7921 66.841 83.2792 65.9501 81.9967C64.932 80.8424 64.4229 79.3035 64.2957 77.3797C64.1684 75.456 64.2957 73.2758 64.8047 70.8391C65.3138 68.4024 65.9501 65.9657 66.7137 63.4007C67.4773 60.8358 68.3682 58.2708 69.2591 55.7058C70.1499 53.1409 70.9135 50.9607 71.5499 48.9087C70.0227 50.3194 68.3682 52.1149 66.4592 54.1669C64.6775 56.2188 62.7685 58.3991 60.8595 60.5793C58.9504 62.8877 57.1687 65.0679 55.2597 67.3764C53.478 69.6849 51.8235 71.7368 50.2963 73.6606C48.7691 75.5843 47.4964 77.2515 46.4783 78.6622C45.4602 80.073 44.6966 81.0989 44.3148 81.6119C44.0602 82.6379 43.5512 83.4074 42.7876 83.6639C42.024 83.9204 41.2604 84.0486 40.4968 83.7921C39.7332 83.5356 39.0968 83.0226 38.4605 82.1249C37.9514 81.3554 37.6969 80.2012 37.9514 78.9187C38.4605 75.456 39.4786 71.0956 41.1331 66.2222C42.7876 61.2205 44.8238 55.9623 47.1146 50.5759C49.4054 45.0613 51.8235 39.5466 54.3689 34.1602C56.9142 28.6455 59.3323 23.6439 61.6231 19.027C63.9139 14.41 65.8229 10.5626 67.3501 7.35639C69.2591 4.66319 70.1499 2.61122 70.5317 1.84173Z" fill="#212121"/>
<path d="M110.236 60.451C112.527 59.5533 114.436 58.2708 115.963 56.4753C117.617 54.6798 118.636 52.8844 119.399 51.2172C120.036 49.4217 120.29 47.8827 120.036 46.472C119.781 45.1895 118.89 44.42 117.363 44.42C116.218 44.42 114.818 44.933 113.418 45.8307C112.018 46.8567 110.618 48.1392 109.091 49.6782C107.691 51.3454 106.291 53.1409 104.891 55.0646C103.618 57.1166 102.345 59.1685 101.327 61.3487C102.473 61.477 103.873 61.6052 105.4 61.477C106.927 61.477 108.582 61.0922 110.236 60.451ZM112.145 65.1962C109.218 66.2222 106.8 66.7352 104.636 66.8634C102.473 66.8634 100.691 66.8634 99.1638 66.4787C98.6547 68.0176 98.2729 69.5566 98.0184 71.0956C97.7638 72.5063 97.7638 73.7888 98.0184 74.943C98.2729 76.0973 98.782 76.8667 99.5456 77.508C100.309 78.1492 101.455 78.4057 102.854 78.4057C106.036 78.4057 108.836 77.8927 111.254 76.7385C113.799 75.5843 115.836 74.3018 117.745 72.6346C119.526 70.9673 121.054 69.3001 122.326 67.6329C123.472 65.8374 124.363 64.2984 124.872 63.016C125.508 61.7335 126.144 60.8357 126.908 60.3228C127.672 59.8098 128.435 59.6815 129.071 59.938C129.708 60.1945 130.217 60.7075 130.344 61.6052C130.599 62.503 130.344 63.6572 129.835 65.1962C129.326 66.7352 128.308 68.5306 126.908 70.5826C125.508 72.7628 123.599 74.8148 121.308 76.7385C119.017 78.6622 116.472 80.3294 113.418 81.7402C110.363 83.1509 106.927 83.7921 103.236 83.7921C98.782 83.7921 95.3458 82.6379 92.8004 80.4577C90.2551 78.2775 88.6006 75.456 87.837 71.9933C87.0734 68.6589 87.0734 64.9397 87.9643 61.0922C88.8551 57.2448 90.5096 53.5256 92.8004 50.1912C95.2185 46.7285 98.2729 44.0353 101.964 41.7268C105.654 39.5466 110.109 38.3924 115.072 38.3924C118.381 38.3924 120.799 38.9054 122.581 40.0596C124.235 41.2138 125.381 42.6245 125.89 44.2918C126.399 46.0872 126.399 47.8827 125.89 50.0629C125.381 52.1149 124.49 54.1669 123.09 56.2188C121.817 58.1425 120.163 59.938 118.254 61.6052C116.472 63.2725 114.436 64.4267 112.145 65.1962Z" fill="#212121"/>
<path d="M154.398 66.3505C153.125 66.607 152.107 66.7352 151.216 66.7352C150.326 66.7352 149.307 66.607 148.162 66.4787C147.017 66.3505 145.744 66.094 144.217 65.8375C142.69 65.581 140.653 65.3245 138.108 64.9397C136.835 64.8115 136.199 64.2985 136.072 63.529C135.944 62.7595 136.072 61.99 136.708 61.0923C137.217 60.3228 137.981 59.5533 138.999 58.9121C140.017 58.2708 141.162 58.0144 142.181 58.0144C143.962 58.1426 145.617 58.1426 147.144 58.0144C148.671 57.8861 150.198 57.6296 151.598 57.3731C152.998 57.1166 154.398 56.9884 155.671 56.7319C156.943 56.6036 158.216 56.4754 159.489 56.4754C160.761 56.4754 161.525 56.9884 161.78 57.8861C162.034 58.7838 161.907 59.8098 161.398 60.964C160.889 62.1183 159.998 63.1443 158.725 64.2985C157.453 65.4527 156.053 66.094 154.398 66.3505Z" fill="#212121"/>
<path d="M190.415 24.4134C190.797 23.3874 191.561 22.8744 192.452 22.6179C193.47 22.4897 194.488 22.6179 195.633 23.0026C196.779 23.3874 197.924 24.1569 199.197 25.0546C200.469 25.9523 201.488 26.9783 202.378 28.1326C203.269 29.2868 204.033 30.441 204.415 31.7235C204.924 33.006 204.924 34.032 204.669 35.1862C204.415 36.0839 203.651 37.6229 202.251 39.9314C200.851 42.1116 199.197 44.8048 197.288 47.6263C195.379 50.576 193.342 53.6539 191.179 56.9883C189.015 60.3228 186.979 63.529 185.07 66.7352C183.161 69.8131 181.507 72.7628 180.234 75.3278C178.834 77.8927 178.07 79.9447 177.689 81.3555C177.434 82.5097 176.925 83.2792 176.161 83.6639C175.398 84.0487 174.634 84.1769 173.871 83.9204C173.107 83.6639 172.343 83.1509 171.834 82.2532C171.325 81.4837 171.071 80.3295 171.325 78.9187C171.834 75.456 172.598 71.7369 173.616 67.8894C174.634 64.042 175.78 60.1945 177.052 56.4753C178.325 52.7562 179.725 49.037 181.125 45.5743C182.525 42.1116 183.925 38.9054 185.07 35.9557C186.343 33.006 187.361 30.5693 188.379 28.6456C189.397 26.7218 190.161 25.1829 190.415 24.4134ZM226.941 55.5776C224.65 60.5793 221.85 65.3245 218.796 69.6849C215.614 74.1736 212.305 78.021 208.742 81.3555C205.178 84.6899 201.615 87.2549 197.924 89.1786C194.233 91.1023 190.797 92 187.488 92C185.834 92 184.688 91.7435 183.925 91.1023C183.288 90.5893 182.907 89.9481 183.034 89.3068C183.034 88.6656 183.416 88.0243 184.179 87.5113C184.943 86.9984 185.834 86.6136 186.979 86.6136C189.27 86.6136 191.561 85.8441 193.724 84.3051C195.888 82.7662 198.051 80.586 200.215 77.7645C202.251 74.9431 204.287 71.6086 206.324 67.7612C208.233 63.9137 210.142 59.6815 211.923 55.1929C213.196 51.9867 214.214 48.9087 215.105 45.7025C215.996 42.4963 216.505 39.4184 216.887 36.4687C217.269 33.519 217.396 30.6975 217.269 28.1326C217.141 25.5676 216.76 23.2591 215.996 21.3354C215.232 19.4117 214.087 17.8727 212.814 16.7185C211.414 15.5643 209.633 15.0513 207.596 15.0513C202.76 15.0513 198.56 15.8208 194.997 17.488C191.433 19.1552 188.634 21.0789 186.343 23.3874C184.179 25.6959 182.652 28.1326 181.888 30.5693C181.125 33.006 180.998 35.1862 181.761 36.8534C182.27 38.1359 182.016 39.2901 180.998 40.4444C179.979 41.5986 178.834 42.4963 177.307 43.1376C175.78 43.7788 174.38 44.1636 172.853 44.1636C171.325 44.1636 170.307 43.7788 169.798 42.8811C169.289 41.9833 169.162 40.5726 169.416 38.6489C169.671 36.7252 170.434 34.545 171.58 32.1082C172.725 29.6715 174.38 27.2348 176.543 24.6699C178.707 22.1049 181.379 19.7965 184.434 17.6162C187.615 15.5643 191.179 13.7688 195.379 12.4863C199.579 11.2038 204.287 10.4344 209.633 10.4344C216.251 10.4344 221.341 11.7168 225.032 14.1535C228.723 16.5902 231.014 19.9247 232.286 24.1569C233.432 28.2608 233.559 33.1342 232.541 38.5206C231.523 44.1636 229.614 49.6782 226.941 55.5776Z" fill="#212121"/>
<path d="M249.593 68.4024C251.12 65.8374 252.393 63.1442 253.411 60.3228C254.429 57.5013 255.065 54.8081 255.32 52.3714C255.574 49.9347 255.32 48.011 254.684 46.472C254.047 44.933 252.902 44.1635 251.12 44.2918C249.847 44.42 248.702 45.0613 247.811 46.0872C246.92 47.1132 246.157 48.2675 245.52 49.8064C244.884 51.2172 244.502 52.8844 244.375 54.6799C244.12 56.4753 244.248 58.1425 244.502 59.938C244.884 61.7335 245.393 63.2725 246.284 64.8114C246.92 66.2222 248.066 67.5046 249.593 68.4024ZM238.648 53.7821C236.866 56.3471 235.466 58.912 234.321 61.8617C233.176 64.6832 232.539 67.3764 232.285 69.8131C232.03 72.2498 232.285 74.1735 233.048 75.8408C233.812 77.508 235.084 78.2775 237.121 78.2775C238.775 78.2775 240.557 77.7645 242.084 76.8667C243.739 75.8408 245.266 74.5583 246.666 72.8911C243.611 70.8391 241.448 68.0176 240.175 64.5549C238.775 60.8358 238.266 57.3731 238.648 53.7821ZM250.611 38.7771C251.247 38.7771 251.884 38.6489 252.266 38.6489C252.775 38.6489 253.156 38.6489 253.665 38.6489C256.847 38.6489 259.52 39.1619 261.556 40.0596C263.592 40.9573 265.247 42.2398 266.519 43.907C267.665 45.5743 268.428 47.3697 268.683 49.5499C268.938 51.6019 268.937 53.9104 268.428 56.2188C268.047 58.5273 267.156 60.964 266.138 63.4007C264.992 65.8374 263.592 68.1459 261.938 70.3261C264.229 69.8131 266.01 69.0436 267.41 67.7611C268.81 66.6069 269.828 65.0679 270.719 63.4007C271.228 62.3747 271.865 61.6052 272.755 61.2205C273.519 60.8358 274.283 60.7075 274.919 60.8357C275.555 60.964 276.064 61.477 276.446 62.1182C276.701 62.8877 276.701 63.7855 276.192 64.9397C275.683 66.0939 274.919 67.3764 273.901 68.7871C272.883 70.0696 271.483 71.3521 269.956 72.5063C268.301 73.6605 266.519 74.5583 264.356 75.1995C262.192 75.969 259.774 76.2255 257.102 76.0973C254.175 78.7905 250.993 80.8424 247.429 82.5096C243.866 84.0486 240.048 84.6899 236.103 84.5616C233.303 84.4334 231.139 83.4074 229.612 81.7402C228.085 80.0729 227.194 77.8927 226.812 75.1995C226.43 72.5063 226.685 69.5566 227.448 66.3504C228.212 63.1442 229.357 59.938 231.012 56.7318C232.666 53.5256 234.83 50.5759 237.248 47.7545C239.793 44.933 242.593 42.6245 245.902 40.9573C247.175 39.6748 248.829 39.0336 250.611 38.7771Z" fill="#212121"/>
<path d="M299.61 56.3471C299.356 57.3731 298.719 58.6556 297.956 60.1945C297.192 61.7335 296.301 63.2725 295.283 64.9397C294.392 66.6069 293.374 68.1459 292.483 69.6849C291.592 71.2239 290.829 72.6346 290.32 73.9171C289.811 75.1995 289.429 76.2255 289.429 76.8668C289.429 77.6363 289.811 77.8928 290.702 77.7645C292.101 77.6363 293.374 77.1233 294.647 75.969C295.919 74.943 297.065 73.6606 298.21 72.1216C299.356 70.5826 300.374 69.0436 301.265 67.3764C302.156 65.7092 302.919 64.1702 303.428 62.8877C304.065 61.6053 304.701 60.7075 305.465 60.1945C306.228 59.6815 306.992 59.5533 307.628 59.8098C308.264 60.0663 308.773 60.5793 308.901 61.477C309.155 62.3748 308.901 63.529 308.392 65.068C307.883 66.6069 306.992 68.4024 305.846 70.4544C304.701 72.6346 303.301 74.6865 301.647 76.6103C299.992 78.534 298.21 80.2012 296.047 81.6119C294.011 83.0227 291.72 83.6639 289.174 83.6639C287.011 83.6639 285.356 83.1509 284.211 81.9967C283.066 80.8425 282.302 79.4317 281.92 77.7645C281.538 75.969 281.411 74.0453 281.666 71.7369C281.92 69.5566 282.302 67.2482 282.811 64.9397C283.32 62.6313 283.956 60.451 284.72 58.2708C285.484 56.0906 286.12 54.2951 286.756 52.7562V53.0127C287.138 51.4737 287.011 50.3194 286.374 49.4217C285.738 48.524 284.975 47.7545 284.084 46.8568C283.575 48.011 283.066 49.55 282.302 51.2172C281.538 52.8844 280.902 54.6799 280.138 56.3471C279.375 58.1426 278.738 59.8098 278.102 61.3488C277.466 62.8877 276.829 64.1702 276.448 65.1962C275.811 66.4787 275.175 67.3764 274.284 67.7612C273.393 68.1459 272.757 68.1459 272.121 67.7612C271.484 67.3764 271.102 66.7352 270.848 65.9657C270.593 65.068 270.848 64.1702 271.357 63.016C271.739 62.2465 272.248 61.3488 272.884 59.938C273.521 58.6556 274.157 57.2448 274.793 55.7059C275.43 54.1669 276.193 52.6279 276.829 50.9607C277.593 49.2935 278.229 47.8827 278.738 46.472C279.375 45.0613 279.757 43.9071 280.138 43.0093C280.52 41.9833 280.775 41.4703 280.775 41.2139C280.647 39.8031 280.902 38.2641 281.666 36.3404C282.175 34.9297 282.811 34.032 283.702 33.519C284.593 33.006 285.356 32.8777 286.12 33.1342C286.884 33.3907 287.393 33.9037 287.774 34.6732C288.156 35.4427 288.029 36.4687 287.52 37.6229C286.884 38.9054 286.629 39.9314 286.629 40.7009C286.629 41.4703 287.011 42.2398 287.647 42.8811C288.283 43.5223 289.174 44.2918 290.447 45.0613C291.592 45.8308 293.12 46.8568 294.774 48.1392C295.538 48.524 296.301 48.9087 296.938 49.4217C297.574 49.9347 298.21 50.5759 298.592 51.3454C298.974 52.1149 299.356 52.7562 299.483 53.6539C299.865 54.6799 299.737 55.4494 299.61 56.3471Z" fill="#212121"/>
</svg>
