<svg width="236" height="236" viewBox="0 0 236 236" fill="none" xmlns="http://www.w3.org/2000/svg">
<g opacity="0.5">
<path d="M236 0H0V236H236V0Z" fill="white"/>
<path d="M196.056 82.4949L141.495 137.225L74.6699 81.5904L126.203 22.4853L196.056 82.4949Z" fill="#A0A0A0"/>
<path d="M199.085 109.292L128.369 140.443L86.3223 64.3216L155.797 27.9751L199.085 109.292Z" fill="#E5E5E5"/>
<path d="M158.587 147.637C176.457 116.412 165.631 76.6138 134.407 58.7441C103.182 40.8744 63.3839 51.7004 45.5142 82.9247C27.6445 114.149 38.4705 153.948 69.6949 171.817C100.919 189.687 140.718 178.861 158.587 147.637Z" fill="#8E8E8E"/>
<path d="M51.8486 188.127L84.43 115.14L80.3705 113.183L43.3509 184.067C42.152 186.423 43.1195 189.305 45.4963 190.462C47.8942 191.619 50.7548 190.567 51.8486 188.127Z" fill="#E2E2E2"/>
<path d="M101.835 109.816C107.074 98.9429 105.001 87.0825 97.2044 83.3256C89.4076 79.5687 78.8397 85.338 73.6002 96.2116C68.3607 107.085 70.4338 118.946 78.2306 122.702C86.0274 126.459 96.5953 120.69 101.835 109.816Z" fill="#F2F2F2"/>
<path opacity="0.2" d="M96.597 107.491C100.409 99.5791 99.4616 91.2194 94.48 88.819C89.4984 86.4186 82.3695 90.8866 78.5572 98.7985C74.7448 106.71 75.6927 115.07 80.6742 117.471C85.6558 119.871 92.7847 115.403 96.597 107.491Z" fill="#B3B3B3"/>
<path d="M165.79 206.868L133.166 133.902L128.98 135.626L157.103 210.486C158.049 212.947 160.847 214.167 163.308 213.157C165.748 212.148 166.883 209.308 165.79 206.868Z" fill="#E2E2E2"/>
<path d="M128.537 105.211L134.658 120.04C135.079 121.071 134.595 122.228 133.564 122.649C132.533 123.069 131.377 122.585 130.956 121.555L124.036 104.812C123.783 104.181 123.152 103.781 122.479 103.823C121.365 103.865 120.628 105.001 121.07 106.053L128.116 123.111C128.474 123.974 128.053 124.962 127.212 125.299L126.56 125.572C125.74 125.909 124.793 125.53 124.456 124.689L117.494 107.841C117.032 106.705 115.559 106.431 114.697 107.294C114.213 107.778 114.066 108.514 114.339 109.145L121.343 126.119C121.659 126.876 121.301 127.739 120.544 128.054L119.577 128.454C118.819 128.769 117.957 128.412 117.642 127.655L111.542 112.847C111.289 112.237 110.427 112.321 110.259 112.931C109.018 117.748 109.438 123.637 111.815 129.4C116.422 140.569 126.644 146.922 134.637 143.64C142.63 140.338 145.385 128.622 140.779 117.453C138.276 111.416 134.132 106.768 129.589 104.307C128.937 103.97 128.264 104.58 128.537 105.211Z" fill="#F2F2F2"/>
</g>
</svg>
